<svg xmlns="http://www.w3.org/2000/svg" viewBox="0 0 218.04 267.77"><defs><style>.cls-1{isolation:isolate;}.cls-2{fill:#dcdddd;}.cls-10,.cls-3{fill:none;}.cls-10,.cls-11,.cls-13,.cls-3{stroke:#231815;stroke-linecap:round;stroke-linejoin:round;}.cls-3{stroke-width:3.5px;}.cls-4{fill:#fed500;}.cls-11,.cls-5{fill:#fff;}.cls-6{fill:#e6e6e6;}.cls-7{fill:#ce6700;}.cls-8{fill:#fbc93e;}.cls-9{fill:#ffd900;}.cls-12,.cls-9{mix-blend-mode:multiply;}.cls-10,.cls-11{stroke-width:1.2px;}.cls-12{fill:#f8b500;}.cls-13{fill:#231815;}</style></defs><title>sedan자산 3</title><g class="cls-1"><g id="레이어_2" data-name="레이어 2"><g id="Layer_1" data-name="Layer 1"><ellipse class="cls-2" cx="109.07" cy="262.1" rx="67" ry="5.67"/><path class="cls-3" d="M109,225c4.71.08,8-.15,8-.15s.59,16,.59,25.28c0,11.57,9.35,11.41,9.35,11.41s23.15.09,27.15,0,10.83-1,11.16-4.75-6.58-5.41-9.41-9.5S154,235.53,154,235.53c0-5.83,4.65-17.65,12.67-20.16,9.58-3,11.66-5.75,11.66-5.75,18,4.12,28.25-13,28.25-13,15-25,11.58-54.82-2.75-71-13.51-15.27-11.75-39-11.75-39,1.44-91-82.16-84.81-83-84.77S24.56-4.4,26,86.62c0,0,1.77,23.73-11.75,39-14.32,16.18-17.75,46-2.75,71,0,0,10.25,17.12,28.25,13,0,0,2.09,2.75,11.67,5.75,8,2.51,12.67,14.33,12.67,20.16,0,0,.91,7.67-1.92,11.75s-9.75,5.75-9.42,9.5,7.17,4.67,11.17,4.75,27.15,0,27.15,0,9.35.16,9.35-11.41c0-9.26.58-25.28.58-25.28S104.16,225.07,109,225Z"/><path class="cls-4" d="M109,225.07c4.37,0,8.32-.23,8.32-.23s.5,16,.5,25.28c0,11.57,11.14,11.41,11.14,11.41s20.15.09,24.15,0,11.58-1,11.92-4.75-6.46-5.41-9.3-9.5-1.91-11.75-1.91-11.75c0-5.83,3.77-17.65,11.79-20.16,9.58-3,12.66-5.75,12.66-5.75,18,4.12,28.25-13,28.25-13,15-25,11.58-54.82-2.75-71-13.51-15.27-11.75-39-11.75-39,1.44-91-82.16-84.81-83-84.77S24.56-4.4,26,86.62c0,0,1.77,23.73-11.75,39-14.32,16.18-17.75,46-2.75,71,0,0,10.25,17.12,28.25,13,0,0,3.16,2.52,12.67,5.75,7.14,2.42,11.86,14.33,11.86,20.16,0,0,.92,7.67-1.92,11.75s-9.63,5.75-9.29,9.5,7.85,4.67,11.85,4.75,23.15,0,23.15,0,12,.82,11.94-11.41c0-9.26.59-25.28.59-25.28S104,225,109,225.07Z"/><path class="cls-5" d="M109,137c9.84.67,34.8-3.16,34.8-3.16,30-5.67,33.66-27.84,34.33-35.34s3.33-40.16-12.33-62.66S109,14.7,109,14.7,67.83,13.37,52.16,35.87,39.16,91,39.83,98.53s4.33,29.67,34.33,35.34C74.16,133.87,99.12,137.7,109,137Z"/><path class="cls-6" d="M165.75,35.87C150.08,13.37,109,14.7,109,14.7S67.83,13.37,52.16,35.87,39.16,91,39.83,98.53s4.33,29.67,34.33,35.34c0,0,25,3.83,34.79,3.16,9.84.67,34.8-3.16,34.8-3.16,30-5.67,33.66-27.84,34.33-35.34S181.41,58.37,165.75,35.87Zm8.72,61.48c-.63,7.11-4.1,28.12-32.54,33.49,0,0-23.66,3.64-33,3-9.32.64-33-3-33-3-28.43-5.37-31.91-26.38-32.54-33.49S40.27,59.28,55.12,38,109,17.89,109,17.89s39-1.26,53.83,20.07S175.11,90.24,174.47,97.35Z"/><path class="cls-7" d="M109,105.2h29.46s3.17.33,2.34,3.33c-.72,2.57-6.08,16.6-31.8,16.39C84,124.4,77.87,111.1,77.16,108.53c-.83-3,2.33-3.33,2.33-3.33H109"/><path class="cls-8" d="M84.14,117.62c4.76,3.67,12.49,7,24.81,7.3,13.61.11,21.52-3.76,26.05-7.82-3.77-3.75-13.63-6.43-25.19-6.43C97.72,110.67,87.5,113.6,84.14,117.62Z"/><path class="cls-2" d="M68.11,100.69c0,2.55-5,4.61-11.11,4.61s-11.12-2.06-11.12-4.61,5-4.61,11.12-4.61S68.11,98.15,68.11,100.69Z"/><path class="cls-2" d="M173.29,100.69c0,2.55-5,4.61-11.11,4.61s-11.12-2.06-11.12-4.61,5-4.61,11.12-4.61S173.29,98.15,173.29,100.69Z"/><path class="cls-9" d="M39.51,210.1S13.8,195.73,22.17,146.77c0,0-2.67-4.66-5.33,3.67S1.84,211.44,39.51,210.1Z"/><path class="cls-9" d="M191.84,131.11c-8.67-8.67-8-46-8-46h-.08c-.13-14.58-2.5-35.86-13.86-52.17C153.09,8.79,109,10.22,109,10.22S64.82,8.79,48,32.94s-14,59.2-13.24,67.25S39.42,132,71.61,138.11c0,0,7.1,1.09,15.42,2,11.2,2.81,39.48,11.34,42.14,26.28,3.34,18.67-4,43.33-60,51.33,0,0-7.33.67,2,6,8.42,4.81,26.57,17.22,20.3,37.58,4,.68,8.58-4.39,8.58-11.23,0-9.26.68-25.28.68-25.28s3.54.23,8.29.23a55.17,55.17,0,0,0,8.28-.23s1.14,16,.62,25.28c-.69,12.17,12.06,11.41,12.06,11.41h1.2a10.59,10.59,0,0,1-4-9.1c.67-10.67,1.34-18,12.67-12.67,9.81,4.62,9.64,14.73,23.7,14.76-1.82-2.36-5.92-4.13-8.12-7.3-2.83-4.09-1.62-11.57-1.62-11.57,0-5.83,4.18-17.56,11.83-20.29,9.45-3.39,12.66-5.75,12.66-5.75,18,4.12,28.25-13,28.25-13,1.11-1.85,2.11-3.73,3-5.62C219.36,161.19,198.77,138,191.84,131.11ZM178.08,98.53c-.67,7.5-4.33,29.67-34.33,35.34,0,0-25,3.83-34.8,3.16-9.83.67-34.79-3.16-34.79-3.16-30-5.67-33.67-27.84-34.33-35.34S36.49,58.37,52.16,35.87,109,14.7,109,14.7s41.13-1.33,56.8,21.17S178.75,91,178.08,98.53Z"/><path class="cls-10" d="M109,105.2h29.46s3.17.33,2.34,3.33c-.72,2.57-6.08,16.6-31.8,16.39C84,124.4,77.87,111.1,77.16,108.53c-.83-3,2.33-3.33,2.33-3.33H109"/><path class="cls-10" d="M84.14,117.62c4.76,3.67,12.49,7,24.81,7.3,13.61.11,21.52-3.76,26.05-7.82-3.77-3.75-13.63-6.43-25.19-6.43C97.72,110.67,87.5,113.6,84.14,117.62Z"/><path class="cls-6" d="M68.11,100.69c0,2.55-5,4.61-11.11,4.61s-11.12-2.06-11.12-4.61,5-4.61,11.12-4.61S68.11,98.15,68.11,100.69Z"/><path class="cls-6" d="M173.29,100.69c0,2.55-5,4.61-11.11,4.61s-11.12-2.06-11.12-4.61,5-4.61,11.12-4.61S173.29,98.15,173.29,100.69Z"/><path class="cls-11" d="M91.16,77.12A19.59,19.59,0,1,1,71.58,57.53,19.58,19.58,0,0,1,91.16,77.12Z"/><path class="cls-11" d="M126.75,77.12a19.58,19.58,0,1,0,19.58-19.59A19.58,19.58,0,0,0,126.75,77.12Z"/><rect class="cls-12" x="95.78" y="1.58" width="27.04" height="13.3"/><polygon class="cls-5" points="126.57 15.75 122.83 15.23 122.83 2.31 126.57 2.78 126.57 15.75"/><polygon class="cls-5" points="95.78 15.25 92.04 15.7 92.04 2.72 95.78 2.27 95.78 15.25"/><path class="cls-10" d="M109,137c9.84.67,34.8-3.16,34.8-3.16,30-5.67,33.66-27.84,34.33-35.34s3.33-40.16-12.33-62.66S109,14.7,109,14.7,67.83,13.37,52.16,35.87,39.16,91,39.83,98.53s4.33,29.67,34.33,35.34C74.16,133.87,99.12,137.7,109,137Z"/><path class="cls-5" d="M163.75,141.42a18.8,18.8,0,0,0,0,37.6h0a18.8,18.8,0,0,0,0-37.6Zm0,3.17h0a15.64,15.64,0,0,1,15,11.32,9.46,9.46,0,0,1-4.93,1.73c-1.18,0-2-1-2.83-1.73a10.94,10.94,0,0,0-7.26-2.68h0a10.89,10.89,0,0,0-7.25,2.68c-.89.74-1.65,1.73-2.84,1.73a9.49,9.49,0,0,1-4.93-1.73A15.63,15.63,0,0,1,163.75,144.59Zm-15.57,16c6.13-1.44,7.1,1.89,7.1,1.89s2.25,4.1-4.75,6.06A14.71,14.71,0,0,1,148.18,160.55Zm15.57,15.23a15.56,15.56,0,0,1-10.26-3.84,8.26,8.26,0,0,1,3.36-4.06c2.51-1.34,3.42-.19,6.9-.19s4.39-1.15,6.9.19a8.26,8.26,0,0,1,3.36,4.06A15.56,15.56,0,0,1,163.75,175.78ZM177,168.5c-7-2-4.75-6.06-4.75-6.06s1-3.33,7.1-1.89A14.71,14.71,0,0,1,177,168.5Z"/><path class="cls-10" d="M73.91,220.19s7,3.84,28.69,5.21"/><path class="cls-10" d="M197.37,152.35s5.38,43.13-18.87,57.75"/><path class="cls-10" d="M144.13,220.19S133.92,224,115.7,225.4"/><path class="cls-10" d="M20.56,152.33s-5.37,43.12,18.88,57.75"/><path class="cls-13" d="M90.41,76.12A12.33,12.33,0,1,1,78.08,63.79,12.33,12.33,0,0,1,90.41,76.12Z"/><path class="cls-13" d="M127.5,76.12a12.33,12.33,0,1,0,12.33-12.33A12.33,12.33,0,0,0,127.5,76.12Z"/></g></g></g></svg>