<svg xmlns="http://www.w3.org/2000/svg" viewBox="0 0 206.66 265.04"><defs><style>.cls-1{isolation:isolate;}.cls-2{fill:#dcdddd;}.cls-13,.cls-14,.cls-3{fill:#231815;}.cls-11,.cls-13,.cls-3,.cls-7,.cls-8{stroke:#231815;stroke-linecap:round;stroke-linejoin:round;}.cls-3{stroke-width:3.5px;}.cls-4,.cls-7{fill:#fed500;}.cls-5{fill:#f8b500;}.cls-5,.cls-9{mix-blend-mode:multiply;}.cls-6{fill:#fff;}.cls-11,.cls-13,.cls-7,.cls-8{stroke-width:1.2px;}.cls-8{fill:none;}.cls-10{fill:#ffd900;}.cls-11,.cls-12{fill:#e6e6e6;}</style></defs><title>sedan자산 1</title><g class="cls-1"><g id="레이어_2" data-name="레이어 2"><g id="Layer_1" data-name="Layer 1"><path class="cls-2" d="M183.72,259.37c0,3.13-39.7,5.67-88.66,5.67S6.39,262.5,6.39,259.37s39.7-5.67,88.67-5.67S183.72,256.24,183.72,259.37Z"/><path class="cls-3" d="M186,122.08a47.54,47.54,0,0,1-3.38-4.76,146.29,146.29,0,0,1-.22-23.11C191.81,3.66,108,2.55,107.12,2.52S23.53-11.08,17,79.72a182.09,182.09,0,0,1-3.13,20.15s-1.39,10.25-7.63,28.51a82,82,0,0,0-2.89,11.1l.12-.78C0,158.54.37,184.13,18.12,201.29A33.67,33.67,0,0,0,27.29,209c-11.34,19.67.13,34.25-2.77,38.15-1.67,2.26-7.68,4.42-6.05,9,1.31,3.67,7.2,3.11,7.2,3.11H59.79s3.11.32,4.91-4.58-2-7.51-1-16c.67-5.82,6.76-12.54,10.71-16,10.25,2,18.26,3.48,30.78,3.35,2.06.92,4.25,2.83,6.64,4.85,9.49,8,10.78,22.84,12.9,25.13s5.42,2.62,8.2,2.95,29.72,0,29.72,0,6.41-.51,5.92-5.4c-.4-4-4.77-4.41-6.57-7-1.44-2.1-5.21-17.74-11.83-28.67,4.79-1.35,10.67-5.66,10.67-5.66a64.9,64.9,0,0,0,7.94-7.11c3.5,8.6,11.52,10.14,13.53,10,0,0,10,.43,16.46-12C198.81,203,219,160.43,186,122.08Z"/><path class="cls-4" d="M167.91,202.29c2.75,11,12.23,12.89,14.44,12.7,0,0,10,.43,16.46-12,0,0,20.15-42.61-12.78-81a39.59,39.59,0,0,1-5.59-9.07"/><path class="cls-4" d="M183,120.79a145.89,145.89,0,0,1-.57-26.58C191.81,3.66,108,2.55,107.12,2.52S23.53-11.08,17,79.72a182.09,182.09,0,0,1-3.13,20.15s-1.39,10.25-7.63,28.51a82,82,0,0,0-2.89,11.1l.12-.78C0,158.54.37,184.13,18.12,201.29A33.67,33.67,0,0,0,27.29,209c-11.34,19.67.13,34.25-2.77,38.15-1.67,2.26-7.68,4.42-6.05,9,1.31,3.67,7.2,3.11,7.2,3.11H59.79s3.11.32,4.91-4.58-2-7.51-1-16c.67-5.82,6.76-12.54,10.71-16,10.25,2,18.26,3.48,30.78,3.35,2.06.92,4.25,2.83,6.64,4.85,9.49,8,10.78,22.84,12.9,25.13s5.42,2.62,8.2,2.95,29.72,0,29.72,0,6.41-.51,5.92-5.4c-.4-4-4.77-4.41-6.57-7-1.44-2.1-5.21-17.74-11.83-28.67,4.79-1.35,10.67-5.66,10.67-5.66,28.14-21.39,22.74-49.23,21.63-67.61"/><polygon class="cls-5" points="121.57 17.2 94.66 14.52 95.95 1.55 122.91 3.85 121.57 17.2"/><polygon class="cls-6" points="125.22 18.53 121.54 17.64 122.77 5.21 126.53 6.08 125.22 18.53"/><polygon class="cls-6" points="94.63 14.9 90.85 14.98 92.09 2.5 95.92 2.27 94.63 14.9"/><path class="cls-7" d="M184.25,206.51s-2.61,4.7-6.63,3.41-4.07-6.29-.45-11l3.61-4.71"/><path class="cls-8" d="M182.89,203.86s3.37,3.3,3.08,7"/><path class="cls-7" d="M81.72,224.43a96.48,96.48,0,0,0,10.89,1.18,92.79,92.79,0,0,0,10.55.4"/><path class="cls-7" d="M60.13,219s29.45,11.69,56.13,6.44"/><g class="cls-9"><path class="cls-10" d="M190.45,132.13a48.72,48.72,0,0,1-4.9-11.8c-.6-.81-1.32-1.86-2-3a144.86,144.86,0,0,1-.22-23.11c6.22-60.06-28.56-80.77-52.94-87.91,5.27,2.74,9.83,5.83,7.09,7.33-5.5,3-18-10.5-56-4S36,36.13,31,53.63s-10,54,22,68.5,76.5,18.5,74,42.5c-2.32,22.29-68.1,52.77-109.38,36.15.17.17.33.35.51.51A33.51,33.51,0,0,0,27.24,209c-11.33,19.67.14,34.25-2.76,38.15-1.67,2.26-7.57,4.42-5.94,9,1.31,3.67,8,3.11,8,3.11H60.66s3.11.32,4.91-4.58-1.95-7.51-1-16c.67-5.82,6.71-11.75,10.66-15.23,10.24,2,17.15,3.12,29.66,3a28.5,28.5,0,0,1,6.7,4.41c9.5,8,10.69,22.6,12.82,24.88s6.62,2.87,9.4,3.2,29.71,0,29.71,0,6.41-.51,5.93-5.4c-.4-4-4.77-4.41-6.57-7-1.44-2.1-5.21-17.74-11.83-28.67,4.79-1.35,10.67-5.66,10.67-5.66a54.23,54.23,0,0,0,7.42-6.18,14.54,14.54,0,0,0,14.05,9,13.8,13.8,0,0,0,4.95-1C206.22,195.89,195.19,140.19,190.45,132.13Z"/></g><path class="cls-11" d="M94.77,126.47a218,218,0,0,0,35,0c30.41-3,36.44-24.8,37.91-32.22s5.53-33.07-7.62-56.87-54.16-26.07-54.16-26.07S65.14,6.39,47.16,27.46,30.41,74.63,30.26,82.17s1.12,30,30.32,38.23A196.78,196.78,0,0,0,94.77,126.47Z"/><path class="cls-6" d="M163.42,92.71c-1.37,7-7.24,23.63-35.78,26.47a205.18,205.18,0,0,1-32.81,0,184.13,184.13,0,0,1-32.07-5.7c-27.41-7.76-28.38-25-28.24-32.09s-.26-33.22,16.62-53,55.08-15.15,55.08-15.15,38.49,2.12,50.83,24.46S164.8,85.75,163.42,92.71Z"/><path class="cls-12" d="M60.47,69.81c-.28,2.53-5.46,4-11.56,3.33S38.1,69.85,38.39,67.32,43.85,63.3,50,64,60.76,67.28,60.47,69.81Z"/><path class="cls-12" d="M166.21,81.77c-.31,2.86-6.06,4.53-12.84,3.76s-12-3.73-11.69-6.58,6.06-4.53,12.84-3.75S166.53,78.93,166.21,81.77Z"/><path class="cls-8" d="M90.68,52.27C89.48,62,80.14,69,69.81,67.9s-17.74-10-16.55-19.72S63.8,31.43,74.13,32.55,91.87,42.51,90.68,52.27Z"/><path class="cls-13" d="M89.94,49.19C89.19,55.34,83.31,59.74,76.8,59S65.63,52.76,66.39,46.62,73,36.07,79.52,36.78,90.69,43.05,89.94,49.19Z"/><path class="cls-8" d="M90,83s17.58,6.37,27.89-.91"/><path class="cls-7" d="M5.64,130.55s-8.85,39.4,26,42.85C67.7,177,93.26,166.88,97,155S95.42,130.61,81,134.05c0,0,4-12.05-2.5-15.29-9.94-4.94-10.23,6.75-10.21,8.17,0,2.31-2,9.41-7.5,11.71s-34,12.29-36.47-8.63"/><g class="cls-9"><path class="cls-10" d="M80.52,134.05s3.24-7.32.4-10.74c1,10.24-12.44,8.95-8.58,19.35C76.63,154.23,45,162.18,23.51,160.8c-11.39-.73-16.74-8.8-19.26-16.23.78,11.69,5.94,26.75,26.87,28.82C67.2,177,92.76,166.87,96.45,155S94.92,130.6,80.52,134.05Z"/></g><path class="cls-6" d="M151.36,136.05a18.8,18.8,0,1,0-3.71,37.42h0a18.8,18.8,0,1,0,3.71-37.42ZM151,139.2h0A15.62,15.62,0,0,1,164.87,152a9.34,9.34,0,0,1-5.07,1.23c-1.18-.11-1.84-1.17-2.65-2a10.89,10.89,0,0,0-7-3.37h0a10.93,10.93,0,0,0-7.48,1.94c-1,.65-1.81,1.56-3,1.44A9.38,9.38,0,0,1,135,149,15.64,15.64,0,0,1,151,139.2ZM134,153.55c6.24-.83,6.88,2.58,6.88,2.58s1.83,4.31-5.33,5.56A14.63,14.63,0,0,1,134,153.55Zm14,16.69a15.47,15.47,0,0,1-9.82-4.84,8.19,8.19,0,0,1,3.75-3.7c2.62-1.08,3.41.15,6.88.49s4.48-.7,6.84.87a8.14,8.14,0,0,1,2.94,4.37A15.54,15.54,0,0,1,148,170.24Zm13.89-5.94c-6.78-2.63-4.14-6.5-4.14-6.5s1.3-3.22,7.26-1.17A14.68,14.68,0,0,1,161.85,164.3Z"/><path class="cls-8" d="M161.76,212.4c28.16-22.92,22.39-49.33,21.27-67.71"/><path class="cls-7" d="M81.5,133.92a23,23,0,0,0-4.16,1.47"/><path class="cls-14" d="M118.65,58.09c1.54.8,6.92,2,26.13,11.69,0,0,2.15,1,3,.19a2.85,2.85,0,0,0,.37-3.94c-.93-1.11-15.16-7.7-24.66-9.8A67.06,67.06,0,0,1,147.09,52s2.53-.08,2.81-2.32c.15-1.2-.54-2.55-3-2.57,0,0-15.81-.43-28.46,8.27,0,0-1,.75-.87,1.58A1.63,1.63,0,0,0,118.65,58.09Z"/></g></g></g></svg>