<?xml version="1.0" ?><svg viewBox="0 0 48 48" xmlns="http://www.w3.org/2000/svg"><title/><path d="M38,48H12a4,4,0,0,1-4-4V4a4,4,0,0,1,4-4H38a4,4,0,0,1,4,4V44A4,4,0,0,1,38,48ZM12,4V44H38V4H12Z" fill="#2161ff"/><rect fill="#2161ff" height="4" width="26" x="12" y="7"/><path d="M27,41H23a2,2,0,0,1,0-4h4A2,2,0,0,1,27,41Z" fill="#2161ff"/><rect fill="#2161ff" height="4" width="26" x="12" y="30"/><path d="M20,28h0a2,2,0,0,1-1.73-1l-3.41-6.13-2.18,3.27A2,2,0,0,1,11,25H2a2,2,0,0,1,0-4H9.93l3.41-5.11a2,2,0,0,1,3.41.14L20,22l5.23-9A2,2,0,0,1,27,12h0a2,2,0,0,1,1.72,1l4.79,8,2-1.58A2,2,0,0,1,36.75,19H46a2,2,0,0,1,0,4H37.45L34.2,25.57a2,2,0,0,1-3-.54L27,17.94,21.73,27A2,2,0,0,1,20,28Z" fill="#a6c7ff"/><rect fill="none" height="48" width="48"/></svg>