<?xml version="1.0" ?><svg viewBox="0 0 48 48" xmlns="http://www.w3.org/2000/svg"><title/><path d="M28.54,27.71a2,2,0,0,1-1.41-3.41L30,21.47a2,2,0,0,1,2.83,2.83L30,27.12A2,2,0,0,1,28.54,27.71Z" fill="#a6c7ff"/><path d="M22.88,22.05a2,2,0,0,1-1.41-3.41l2.83-2.83a2,2,0,0,1,2.83,2.83L24.3,21.47A2,2,0,0,1,22.88,22.05Z" fill="#a6c7ff"/><path d="M29.44,41.69a4,4,0,0,1-2.83-1.17L7.44,21.35a4,4,0,0,1,0-5.66l8.25-8.25a4,4,0,0,1,5.66,0L40.52,26.61a4,4,0,0,1,1.17,3.05l-0.49,8.71a3,3,0,0,1-2.82,2.83l-8.71.49H29.44ZM18.52,10.27l-8.25,8.25L29.44,37.69l7.81-.44,0.44-7.81ZM37.69,29.44l2,0.11-2-.11h0Z" fill="#2161ff"/><path d="M45.51,47.51a2,2,0,0,1-1.41-.59l-6.36-6.36a2,2,0,0,1,2.83-2.83l6.36,6.36A2,2,0,0,1,45.51,47.51Z" fill="#2161ff"/><rect fill="#2161ff" height="7" transform="translate(-4.35 10.51) rotate(-45)" width="4" x="8.51" y="7.01"/><path d="M2.49,14.16a2,2,0,0,1-1.41-3.41l9.67-9.67a2,2,0,0,1,2.83,2.83L3.91,13.57A2,2,0,0,1,2.49,14.16Z" fill="#2161ff"/><rect fill="none" height="48" width="48"/></svg>