<svg xmlns="http://www.w3.org/2000/svg" xmlns:xlink="http://www.w3.org/1999/xlink" viewBox="0 0 608.59 292.7"><defs><style>.cls-1,.cls-16,.cls-28,.cls-5{fill:#231815;}.cls-1,.cls-10,.cls-11,.cls-12,.cls-13,.cls-18,.cls-19,.cls-28,.cls-29,.cls-33,.cls-5,.cls-6,.cls-7,.cls-9{stroke:#231815;stroke-linecap:round;stroke-linejoin:round;}.cls-1,.cls-10,.cls-11,.cls-12,.cls-13,.cls-18,.cls-19,.cls-29,.cls-33,.cls-6,.cls-7,.cls-9{stroke-width:1.2px;}.cls-19,.cls-2{fill:none;}.cls-3{isolation:isolate;}.cls-4{fill:#dcdddd;}.cls-5{stroke-width:2.5px;}.cls-21,.cls-6{fill:#322b29;}.cls-7{fill:#44403f;}.cls-12,.cls-15,.cls-18,.cls-23,.cls-25,.cls-8{fill:#fff;}.cls-8{opacity:0.2;}.cls-9{fill:#e8e8e8;}.cls-10{fill:#0097dd;}.cls-11{fill:#f2f2f3;}.cls-13{fill:#8b8b8b;}.cls-14{fill:#e9eaea;}.cls-15{opacity:0.3;}.cls-17{opacity:0.5;}.cls-18{opacity:0.05;}.cls-20{clip-path:url(#clip-path);}.cls-22{fill:#393332;}.cls-23{opacity:0.1;}.cls-24{clip-path:url(#clip-path-2);}.cls-26{fill:#00b9ef;}.cls-27{fill:#0081b8;}.cls-28{stroke-width:3.5px;}.cls-29,.cls-30{fill:#fed500;}.cls-31,.cls-37{mix-blend-mode:multiply;}.cls-32{fill:#ffd900;}.cls-33,.cls-36{fill:#e6e6e6;}.cls-34{fill:#ce6700;}.cls-35{fill:#fbc93e;}.cls-37{fill:#f8b500;}.cls-38{clip-path:url(#clip-path-3);}</style><clipPath id="clip-path"><path class="cls-1" d="M338.26,216.74c-1.47,25.81-7.8,46.45-14.14,46.1s-10.3-21.56-8.83-47.37,7.79-46.46,14.14-46.11S339.72,190.92,338.26,216.74Z"/></clipPath><clipPath id="clip-path-2"><path class="cls-1" d="M514.05,178.26c0,17.42-5,31.53-11.22,31.53s-11.21-14.11-11.21-31.53,5-31.52,11.21-31.52S514.05,160.85,514.05,178.26Z"/></clipPath><clipPath id="clip-path-3"><path class="cls-2" d="M493.91,42.22c-3.17,1.59-7-.35-12.4-3.79-1.06-.68-2.4-1.45-3.61-2.22a115.28,115.28,0,0,0-14.57-8.4c-7.12-3.3-12.33-4.57-17-5-8.74-.82-13.89,3.06-19.31,4.3-10.54,2.41-14.06,5-12.35,8.56,1.64,3.36,9.55.07,9.55.07A28,28,0,0,1,443.11,31c1,.09,2,.24,3,.42A50.69,50.69,0,0,1,461.35,37a96.54,96.54,0,0,1,9.43,5.79c1.37,1.08,2.67,2,3.51,2.62,9.81,7.37,32.08,1.4,38.41,5.74,0,0,1.68-3.65-.41-5.93S503.5,37.43,493.91,42.22Z"/></clipPath></defs><title>sedan자산 2</title><g class="cls-3"><g id="레이어_2" data-name="레이어 2"><g id="Layer_1" data-name="Layer 1"><path class="cls-4" d="M85.65,247.68s-55,0-48,7,223.21,38,239.21,38,48-2,66-3,33.79-18,33.79-18,31,8,61,6,117,4,120-5-64-33-64-33l-21-66Z"/><path class="cls-5" d="M515.48,154.22a58.41,58.41,0,0,0-2.22-6.05,24.66,24.66,0,0,0,1.89-1.63,18.31,18.31,0,0,0-.7-8.68,39.58,39.58,0,0,0-1.89-7.74c-1.11-7.16-2.6-16.13-3.78-20.39a57.4,57.4,0,0,0-4.5-11.34,21.14,21.14,0,0,0-.06-9.33c-1.47-6.63-9.4-10.51-10.57-11.06a17.82,17.82,0,0,0-1.56-1.91c-3.15-3.41-14.32-26.23-17.9-29.05a1.3,1.3,0,0,0-.17-.26c-.23-.22-.59-.6-1.08-1.1-.59-1.42-.67-1.15-2.81-2.69-1.58-1.45-3.62-3.17-6.1-5-1.67-1.49-3.67-3.34-6.11-5.68-15.7-15.1-68.16-26.83-85.44-23.65-.17,0-.34.08-.51.12-8.37-.43-26.44-1-64.87-2.7C223.11,2.34,151.84,56.85,146,60.3s-20.66,8.47-20.66,8.47l-.95.32c-8.27,1.36-66.18,11.46-85.11,31.37l-.85.91a3.35,3.35,0,0,1,.8-1.07,47.31,47.31,0,0,0-8.3,4.14C20,107,16.64,125.12,18,127.38c-.18,1-.32,1.88-.43,2.73-3.78,7.09-5.79,12.58-7.4,15.92-3.45,7.16-8.22,16.16-6.36,21.46.27.78.51,1.36.72,1.83a1.87,1.87,0,0,0-.25.86s0,1,.08,2.39c-.16.1-.28.36-.31.83,0,0,.13,4.39.13,6.2,0,1.66.63,13.56,1.31,16.63a20.57,20.57,0,0,0-1,3.76c-.2,1.79-3.58,1.59-3.18,7.35s9.94,20.87,12.52,22.06,5.76-.4,9.34,1.39,4.77,3.18,12.72,4.77c1.47.29,5.88.95,12.19,1.83,2,3.78,5.38,8.8,10.26,11.55,8.48,4.77,33.39,4,36.3,3.45,2.25-.41,9.36-2.72,13.72-7.27,20.47,2.43,38.8,4.35,44.77,4.35,15.1,0,104.92-7.35,107.3-6.36,1.56.65,1.85,2,2.68,3.17,2.72,12,7.32,27,12.43,29.42,7.15,3.38,32,3.18,44.31,1.79,11.32-1.28,19.95-20.86,23.44-55.17a47.72,47.72,0,0,0,11.89-4.41,3.06,3.06,0,0,0,1.83.16c2.16-.36,85.37-22,103.82-26.57,1.25,17.7,10.33,28.43,13,29,3.31.66,17.75.79,27.81.66s14.05-18.15,15.11-25.7C517.43,190,520,168.66,515.48,154.22Z"/><path class="cls-6" d="M515.15,146.54a26,26,0,0,1-7.35,4.91c-4,1.59-26.63-14.7-26.63-14.7s12.72-20.67,19.87-15.5S516.94,135.66,515.15,146.54Z"/><path class="cls-6" d="M493.49,77.93s9.14,4,10.73,11.13-.79,11.92-.79,11.92S489.12,80.31,493.49,77.93Z"/><path class="cls-7" d="M125.35,68.77s14.83-5,20.66-8.47,77.1-58,161.09-54.25,70.74,2.05,71.54,5.23S348.17,44.93,345,47.84s-18,20.14-22.52,22S227.09,79.9,226,79.9s-100.95-1.59-104.92-3.18S114.75,72.22,125.35,68.77Z"/><path class="cls-8" d="M342,8.18c-9.19-.37-20.62-.84-34.86-1.47-69.79-3.08-130.79,34-152.77,48.64,38.23-10,77.59-16.48,118.59-23.39C296.16,28.39,322.52,22.58,342,8.18Z"/><path class="cls-9" d="M321.61,67.65s33.58-55.84,50.87-59,69.74,8.55,85.44,23.65,13.71,10.13,15.3,14.11,1,3.37.8,4.17-13.12-15.5-19.67-17.69-59-21.06-76.31-10.53S341.88,69,341.88,69,324.19,70.63,321.61,67.65Z"/><path class="cls-1" d="M490.05,134.75s10.46-.8,12.85.79,8.08,4.24,12.58,18.68,1.95,35.82,1.2,41.2c-1.06,7.55-5,25.57-15.11,25.7s-24.5,0-27.81-.66-17-17.62-12.06-44.38S490.05,134.75,490.05,134.75Z"/><path class="cls-6" d="M356.78,217s-9.74,5.61-16.69,5.61-65.38-3.77-65.78-5.76,2.19-88.23,50.48-80.28S368.7,198,356.78,217Z"/><path class="cls-1" d="M308.49,147.93s15.9-1.59,22.06,2.78,16.29,22.06,13.51,62.2-11.92,63.19-24.24,64.58-37.16,1.59-44.31-1.79-13.32-31.4-14.71-41.53S273.72,147.13,308.49,147.93Z"/><path class="cls-1" d="M45.86,232.51s4,11.66,12.45,16.43,33.39,4,36.3,3.45,14-4.24,16.69-11.93S45.86,232.51,45.86,232.51Z"/><path class="cls-6" d="M6.05,194.63A31,31,0,0,0,4.46,200c-.2,1.79-3.58,1.59-3.18,7.35s9.94,20.87,12.52,22.06,5.76-.4,9.34,1.39,4.77,3.18,12.72,4.77S138,249.47,153.1,249.47s104.92-7.35,107.3-6.36,1.79,3.78,4.77,4.57,17.49.6,18.88-1-.2-54.05,7.75-70.35-19.67-.19-20.27-.59-153.21-5.37-153.21-5.37L14.2,173.16S7.05,188.66,6.05,194.63Z"/><path class="cls-10" d="M125.4,68.93S59.69,79,39.29,100.46,13.59,138.88,10.15,146s-8.22,16.16-6.36,21.46,2.12,2.12,4.5,6.36,5,5,14.31,7.69,131.68,10.06,134.33,9.53,6.36-5.56,10.86-5.56,49.55-4.77,57.49-1.86,20.93,20.14,22.26,22.26,1.85,2.65,5.3,3.45,16.43-.27,17.49-1.33,25.43-51.14,29.14-54.31,19.08-23.85,35.77-17.23,19.6,25.18,22.52,33.12-.8,25.17,1.85,26,66.51-23.32,66.51-23.32l51.13-5.83,8.48-19.87s6.89-24.37,15.63-21.19,12.72,15.1,12.72,15.1-3.18-23-5.3-30.74a63.48,63.48,0,0,0-6.09-14.3c-.8-1.59-4.77-4.51-6.1-9.28s-1.32-6.62-4.5-10.06-14.57-26.76-18-29.15S345,66.28,345,66.28a18.84,18.84,0,0,1-3.71,1.33H323.05c-5.83,0-12.45,3.44-19.34,4S205.15,70,185.81,70,122,73.17,120.1,72.11,127.52,71.32,125.4,68.93Z"/><path class="cls-11" d="M191.65,186.68s-15.1.39-20.67,1.39-13.51,6.56-18.48,16.09-10.17,19.47-3.37,21.49c9.56,2.85,54.33-2.14,64.18-2.61,10.13-.48,31.59-2.78,34-4s3-2.62.79-6.76c-2-3.76-17-24.34-24.44-26C219.27,185.29,191.65,186.68,191.65,186.68Z"/><path class="cls-12" d="M4.26,170.18s.2,5.77.2,8.15S5.65,199.2,6.85,201s5.16,7.36,7,6-.2-26.43-1.19-28.82S4.66,165.61,4.26,170.18Z"/><path class="cls-1" d="M4,173.4s.13,4.39.13,6.2.75,15.88,1.5,17.24,3.27,5.6,4.4,4.54-.13-20.11-.75-21.93S4.28,169.92,4,173.4Z"/><path class="cls-7" d="M270.27,207.87c.15.23,13-2.32,23.12-33.91s33.78-38.55,47.89-29.81,18.28,50.28,12.92,72.73c0,0,.39,1.59,2.78,1.19s103.33-26.62,107.3-27.42,9.74-1.59,10.93-2.78,6.76-25.64,7.55-28.22,9.14-31.59,18.88-31.2,13.51,18.09,13.51,18.09,0-13.91-4.57-20.27-16.89-9.14-24.24,8-8.94,27.62-9.54,28.41-15.1-13.71-28.22-11.13-81.07,37.36-82.86,38.36-3.38,2.58-4.77-.6,1-37.95-15.1-52.26-41.73-4.37-54.45,19.87S268.62,205.22,270.27,207.87Z"/><path class="cls-1" d="M204.57,189.8s-29.53.28-34.35,2.78c-11.66,6-13.87,20.34-15.86,22.52s-6.43,5-4.84,7.15,29.53.35,31.65.07c1.59-.2,53.35-3.8,56.87-4.68,2.34-.59,6.19-.71,6.07-3.94-.1-2.7-15.35-22.18-20.67-23.45C219.27,189.26,204.57,189.8,204.57,189.8Z"/><path class="cls-6" d="M39.24,100.3S28.9,104,24.13,110.37,16,134.22,17.78,135.81s8.14-9,9.93-8.15S41,137.4,45.79,139s7,7.75,7.75,12.12.2,15.3,21.66,16.49,24.84-1.39,33.39-13.51,35.37-14.31,56-17.89c0,0,10.14-2.18,15.5,2.19s8.55,5,13.72,4.77,62.59-12.52,66.76-13.91,21.46-21.07,23.65-30.2c0,0,3-2.79-12.12-2.19s-37.76,4-42.33,4.77-28.61,5.16-36.36,8.14-4.37,3.58-13.32,4.77-74.91,7.36-77.69,6.36-5-5.16-6.56-5.36-14.71-1-16.69-.2-6,4.37-7.55,4.37-32.79-8.94-34.18-10.93S38,101.17,39.24,100.3Z"/><path class="cls-13" d="M177.94,116.47s-8.75,3-9.41,6.09,10.73,15,18,18,35.37-2.92,35.37-2.92,40.67-9.8,42-11.26,14.44-18.41,16.17-22.25,3-5,1.85-5.7-85.18,13.38-87.83,14-6.89,3.18-9.14,3.31A49.84,49.84,0,0,0,177.94,116.47Z"/><path class="cls-14" d="M195.69,112.09s24.37-2.25,35.37-3.44,49.81-8.21,50.87-10.2-37.75,1.32-46.9,3.31S193.44,110.11,195.69,112.09Z"/><path class="cls-15" d="M236.73,120.56c0,4.24-2.61,7.67-5.82,7.67s-5.82-3.43-5.82-7.67,2.6-7.67,5.82-7.67S236.73,116.33,236.73,120.56Z"/><path class="cls-15" d="M202.82,127.39c0,3.17-1.95,5.74-4.35,5.74s-4.35-2.57-4.35-5.74,1.95-5.73,4.35-5.73S202.82,124.23,202.82,127.39Z"/><path class="cls-16" d="M150.52,199.39h-.06c-121.9-5.9-133.26-11.83-133.69-12.08A1.2,1.2,0,0,1,18,185.23c.56.28,13.56,6,132.62,11.78a1.19,1.19,0,0,1,0,2.38Z"/><path class="cls-16" d="M144.55,206.55h0C44.32,204.38,19,194.75,17.93,194.34a1.19,1.19,0,1,1,.88-2.21h0c.25.09,26.23,9.88,125.77,12a1.2,1.2,0,0,1,0,2.39Z"/><path class="cls-16" d="M142.37,214.1h-.05C38,209.57,19.41,201.61,18.67,201.27a1.19,1.19,0,0,1,1-2.17h0c.18.08,19.38,8.13,122.76,12.62a1.18,1.18,0,0,1,1.14,1.24A1.2,1.2,0,0,1,142.37,214.1Z"/><path class="cls-16" d="M140.38,222.05h-.06c-100.77-5.12-120.4-12.3-121.19-12.6a1.2,1.2,0,0,1,.86-2.23h0c.19.08,20.43,7.37,120.45,12.44a1.2,1.2,0,0,1-.06,2.39Z"/><path class="cls-16" d="M113,131.45c-12.34,0-25.68-.67-40.13-2-34.44-3.18-40.84-9.63-41.1-9.91a1.19,1.19,0,0,1,1.72-1.64c.13.12,6.71,6.14,39.6,9.18,37.43,3.46,67.34,2.43,91.42-3.16a1.2,1.2,0,0,1,.54,2.33C150.09,129.72,132.87,131.45,113,131.45Z"/><path class="cls-16" d="M98.57,138.11c-6.24,0-12.59-.21-18.89-.72-36-2.89-46.72-11.23-47.16-11.59A1.19,1.19,0,0,1,34,124c.11.09,10.75,8.25,45.85,11.06,41.47,3.33,85.06-6,85.49-6.13a1.19,1.19,0,1,1,.51,2.33A359.3,359.3,0,0,1,98.57,138.11Z"/><path class="cls-16" d="M91.78,145.09c-28.76,0-39.95-5.15-40.54-5.43a1.19,1.19,0,0,1,1-2.15c.23.11,18.79,8.53,68.92,3.67a1.19,1.19,0,1,1,.23,2.37C110,144.66,100.13,145.09,91.78,145.09Z"/><path class="cls-16" d="M91.81,153.09c-21.42,0-32.89-3.45-33.45-3.62a1.21,1.21,0,0,1-.79-1.5,1.18,1.18,0,0,1,1.49-.78c.16.05,16.28,4.88,45.48,3.12a1.19,1.19,0,0,1,.14,2.38C100.06,153,95.77,153.09,91.81,153.09Z"/><path class="cls-16" d="M90.47,160.62c-17.81,0-28.56-2.66-29.07-2.79a1.19,1.19,0,0,1,.58-2.31c.14,0,14.23,3.52,36.42,2.54a1.2,1.2,0,0,1,.11,2.39C95.69,160.57,93,160.62,90.47,160.62Z"/><g class="cls-17"><path class="cls-16" d="M150.52,201.25h-.06C28.56,195.34,17.2,189.41,16.77,189.16A1.19,1.19,0,0,1,18,187.09c.56.28,13.56,6,132.62,11.78a1.19,1.19,0,0,1,0,2.38Z"/><path class="cls-16" d="M144.55,208.4h0C44.32,206.24,19,196.6,17.93,196.2a1.19,1.19,0,0,1,.88-2.22h0c.25.1,26.23,9.89,125.77,12a1.19,1.19,0,0,1,0,2.38Z"/><path class="cls-16" d="M142.37,216h-.05C38,211.42,19.41,203.47,18.67,203.13a1.19,1.19,0,0,1,1-2.17h0c.18.08,19.38,8.12,122.76,12.61a1.19,1.19,0,0,1,0,2.38Z"/><path class="cls-16" d="M140.38,223.9h-.06c-100.77-5.12-120.4-12.29-121.19-12.6a1.19,1.19,0,1,1,.86-2.22h0c.19.07,20.43,7.36,120.45,12.44a1.19,1.19,0,0,1-.06,2.38Z"/><path class="cls-16" d="M113,133.3c-12.34,0-25.68-.66-40.13-2-34.44-3.19-40.84-9.64-41.1-9.91a1.19,1.19,0,0,1,1.72-1.65c.13.12,6.71,6.14,39.6,9.18,37.43,3.46,67.34,2.43,91.42-3.15a1.19,1.19,0,1,1,.54,2.32C150.09,131.57,132.87,133.3,113,133.3Z"/><path class="cls-16" d="M98.57,140c-6.24,0-12.59-.22-18.89-.72C43.64,136.36,33,128,32.52,127.66A1.19,1.19,0,0,1,34,125.8c.11.09,10.75,8.25,45.85,11.07,41.47,3.32,85.06-6,85.49-6.14a1.19,1.19,0,1,1,.51,2.33A358.81,358.81,0,0,1,98.57,140Z"/><path class="cls-16" d="M91.78,147c-28.76,0-39.95-5.15-40.54-5.43a1.2,1.2,0,0,1-.56-1.59,1.19,1.19,0,0,1,1.59-.56c.23.1,18.79,8.52,68.92,3.66a1.2,1.2,0,0,1,.23,2.38C110,146.52,100.13,147,91.78,147Z"/><path class="cls-16" d="M91.81,154.94c-21.42,0-32.89-3.45-33.45-3.62a1.19,1.19,0,0,1,.7-2.28c.16.05,16.28,4.88,45.48,3.13a1.18,1.18,0,0,1,1.26,1.12,1.19,1.19,0,0,1-1.12,1.26C100.06,154.83,95.77,154.94,91.81,154.94Z"/><path class="cls-16" d="M90.47,162.48c-17.81,0-28.56-2.67-29.07-2.8a1.19,1.19,0,0,1,.58-2.31c.14,0,14.23,3.52,36.42,2.55a1.18,1.18,0,0,1,1.24,1.14,1.19,1.19,0,0,1-1.13,1.24Q94.28,162.48,90.47,162.48Z"/></g><path class="cls-18" d="M231,198.4s-41.13,4.37-43.31,3.38-5.17-7-14.31-7.15-15.1,14.3-14.91,17.28,6.56,10.54,21.27,8.55c0,0,5.44-.78,8.34-8.35,1.92-5,45.51-8,47.69-7.55S231.79,198.8,231,198.4Z"/><path class="cls-19" d="M284.25,99.05c1-.8,16.89-2.79,19.67-5.77s4.57-16.49,8.74-18.28"/><path class="cls-19" d="M268.35,122.49s18.08,13.71,26,26.63"/><path class="cls-12" d="M338.26,216.82c-1.47,25.82-7.8,46.46-14.14,46.11s-10.3-21.56-8.83-47.38,7.79-46.46,14.14-46.11S339.72,191,338.26,216.82Z"/><path class="cls-7" d="M515.62,178.26c0,20.67-6,37.43-13.32,37.43S489,198.93,489,178.26s6-37.42,13.31-37.42S515.62,157.6,515.62,178.26Z"/><path class="cls-1" d="M181.51,208.53c0,4.5-2.49,8.15-5.56,8.15s-5.56-3.65-5.56-8.15,2.49-8.14,5.56-8.14S181.51,204,181.51,208.53Z"/><path class="cls-7" d="M340.34,216.93c-1.73,30.5-9.21,54.88-16.7,54.47s-12.16-25.47-10.43-56,9.21-54.88,16.7-54.47S342.07,186.44,340.34,216.93Z"/><path class="cls-16" d="M338.26,216.74c-1.47,25.81-7.8,46.45-14.14,46.1s-10.3-21.56-8.83-47.37,7.79-46.46,14.14-46.11S339.72,190.92,338.26,216.74Z"/><g class="cls-20"><path class="cls-12" d="M336.64,244c-2.25-5.7-6.09-13-9.93-9.41s3.57,24.11,3.57,24.11-4,5.56-3.71,4.11-2.38-18.29-2.78-24.51.27-9.27,3.58-11.26,9.54,4.77,9.54,4.77"/><path class="cls-12" d="M321.41,261.31s1.72-10.2,1.59-15.1-1.46-19.21-2.65-20-3.71,9-6.1,11.93a7.34,7.34,0,0,0-1.45,6.22,22,22,0,0,0,2.91-3c.66-1.06,3.45-10.73,4-10.21s2.51,22.39-1.06,28.09S321.41,261.31,321.41,261.31Z"/><path class="cls-12" d="M312.4,229.38s7.82-13.51,9.4-18.28,1.59-22-3.84-23.71-5.83,10.2-5.83,10.86,6.36-6.89,7.69-.53.79,22.12-10.47,26.23S312.4,229.38,312.4,229.38Z"/><path class="cls-12" d="M319.82,177.85a28.78,28.78,0,0,1,4,9.8c1.06,5.57-.53,14.31,2.78,13.78s11.27-26.49,6.5-31.79-5-3.71-5.7-2,3.58,6,2.91,14.57-2.38,12.19-3.31,12.32.27-16.42-4.64-21.46S319.82,177.85,319.82,177.85Z"/><path class="cls-12" d="M335.58,177.45s-2.25,16.43-3.71,21.6-6.49,13.91-3.44,18.41,9.4,7.29,10.46-12.85l.54-3.71s-3.85,14.17-5.7,14.84-2.78-3.18.4-13.25,4.5-24.64,4-25.3S335.58,177.45,335.58,177.45Z"/></g><path class="cls-19" d="M338.26,216.74c-1.47,25.81-7.8,46.45-14.14,46.1s-10.3-21.56-8.83-47.37,7.79-46.46,14.14-46.11S339.72,190.92,338.26,216.74Z"/><path class="cls-21" d="M71,122.1s-8.35,7.74-8.15,9.53,5,18.28,7.16,20.07,20.46,2.39,22.45,1.39S107,135,106.6,133.22s-10.53-14.5-12.12-15.1-14.11-.59-15.7-.59S74.41,118.92,71,122.1Z"/><path class="cls-22" d="M71,123.59s-6.76,6.28-6.6,7.73,4,14.81,5.8,16.26,16.58,1.93,18.19,1.13,11.76-14.66,11.43-16.11S91.27,120.85,90,120.37s-11.43-.48-12.72-.48S73.72,121,71,123.59Z"/><path class="cls-13" d="M31.56,104.3s-1.06,5.83,0,7.42-.53,6.88-4.24,6.88-6.89,9-9,9S19.37,106.42,31.56,104.3Z"/><path class="cls-15" d="M204.17,117.27s-13.12,1.59-14.71,4.38,1.59,10.73,4.38,12.71,14.3.8,15.49-2.78c0,0-10.33,3.18-12.71,1.59s-6-9.93-3.58-10.73,8-3.58,14.7-4.37,8.75-2,8.75-2Z"/><path class="cls-18" d="M256.23,125.22s-16.69,6.36-18.68,6.36S251.46,124.83,256.23,125.22Z"/><path class="cls-18" d="M364.33,197.55s108.1-26.49,109.16-29.14S366.45,194.91,364.33,197.55Z"/><path class="cls-23" d="M253.58,106.41s9.54.53,10.6,5.3S255.7,125,250.4,126.55s-47.16,12.19-51.4,12.72,55.64-10.6,62-13.25,15.37-18.55,15.9-22.79S275.3,102.7,253.58,106.41Z"/><path class="cls-16" d="M514.05,178.26c0,17.42-5,31.53-11.22,31.53s-11.21-14.11-11.21-31.53,5-31.52,11.21-31.52S514.05,160.85,514.05,178.26Z"/><g class="cls-24"><path class="cls-25" d="M495.88,149.92a15.78,15.78,0,0,1,4.17,6.29c1,3.44,1.26,11.85-1.06,14.64s-8,1.06-10,1.85-.53-5.43.06-5.83,8.22,1.59,9.28-1.19,1.32-10.73-4.84-11.86S493.23,149.25,495.88,149.92Z"/><path class="cls-25" d="M499.79,146.74s.92,2,2,9.93-.2,15.24,3.31,14.31,7.62-12.06,6.76-14.77a8.63,8.63,0,0,0-2.39-4.11c-.26-.2-.46,14.31-3.91,14.64s.67-19.28-2.84-21.06S499.79,146.74,499.79,146.74Z"/><path class="cls-25" d="M512.77,162.5s-3.74,9.32-5.57,12c-2.45,3.58-4.43,5.5-3.51,8.21.77,2.25,6.89,13.85,10.14,7.22s-.07-6.49-.07-6.49-2.05,5.57-3.64,5.24-4.64-5.44-2.72-7.89,6.89-9.67,7.49-14.44S512.77,162.5,512.77,162.5Z"/><path class="cls-25" d="M511,201s-3.31-9.73-8.48-12.38-2.52,17.88-3.24,20.33,2.45,1.46,2.45,1.46-1.53-17.49-.14-17.42,7.42,8.68,5.5,14.24S510.65,204.5,511,201Z"/><path class="cls-25" d="M493.63,201.05s5.29-16.76,2.18-19.41-4.24,4.77-5.1,4.71-.2-6.3-.2-6.3,4-4.77,6.56-3.24,1.12,24.18-.73,28.68S493.63,201.05,493.63,201.05Z"/></g><path class="cls-19" d="M514.05,178.26c0,17.42-5,31.53-11.22,31.53s-11.21-14.11-11.21-31.53,5-31.52,11.21-31.52S514.05,160.85,514.05,178.26Z"/><path class="cls-26" d="M113.69,72S59.11,83.1,46.39,98.46s47.16,7.42,71,5.3,110.75-28.61,92.2-30.2S106.8,77.27,113.69,72Z"/><path class="cls-27" d="M249.87,201.26s-13.78-22.25-24.37-26-59.88-1.06-63.06,2.12-2.12,6.35,4.24,5.83,56.7-3.71,61.47,0S246.69,200.73,249.87,201.26Z"/><path class="cls-14" d="M439.05,148.27s-3.71-60.41-10.6-64.65S428.45,97.4,439.05,148.27Z"/><path class="cls-14" d="M94.73,136.81a2.71,2.71,0,0,0,0-.29c0-2.11-3.08-4.15-7.62-5.29h0l-.42-.1-.2-.05-.24,0-.39-.08h0c-.54-.11-1.1-.21-1.67-.29l1.28-2.35c-.85-.08-1.73-.13-2.62-.15-8-.13-14.6,2.68-14.66,6.28,0,.1,0,.2,0,.3,0,2.1,3.08,4.14,7.62,5.29h0l.41.1.21,0,.23.05.39.09h0c.54.11,1.1.21,1.68.29l-1.29,2.34c.85.09,1.73.14,2.63.15C88.11,143.23,94.67,140.41,94.73,136.81Zm-13.35,2.67c-4.85,0-8.77-1.76-8.77-3.92s3.94-3.89,8.79-3.88,8.78,1.76,8.77,3.92S86.23,139.49,81.38,139.48Z"/><path class="cls-7" d="M337.7,87.32S422,78.18,429.71,77s36-2.78,38.94-5.57S476,48.77,474,46.78a86.15,86.15,0,0,0-36.17-22.25C415.6,17.37,392,10,374.46,19s-41.92,65.38-41.92,65.38S329,88.71,337.7,87.32Z"/><path class="cls-6" d="M407.05,20.55s13.71,33.59,14.51,54.65l-50.67,5.56-7-44.51s7.23-12.53,15.9-16.09C385.26,17.92,402.68,16.18,407.05,20.55Z"/><path class="cls-6" d="M445.93,29.84c4.29,3.9,11.4,15.35,12.79,19.13s5.36,21.26,4.17,22.25-30.2,3.18-30.2,3.18C429.71,52,416,21.55,416,21.55s.27-.72,2.39-.72S444,28,445.93,29.84Z"/><path class="cls-6" d="M366.51,81.36S355.39,83,354.59,83s-2.78-25.44-2-27.62S359.76,43,360.36,43.8,366.51,81.36,366.51,81.36Z"/><path class="cls-27" d="M364.59,85s-5.29,5.3-4.5,9.27,4,12.19,10.6,11.66,6.36-11.39,9.8-13.51S377.84,86,369.63,86"/><path class="cls-1" d="M382,82.15s-7.75,3.38-10.13,19.08c0,0,.2,2-2.38,2.38s-7.56-9.14-7.56-11.92S366.71,79.77,369.5,80,382,82.15,382,82.15Z"/><path class="cls-22" d="M379.47,80.18s-6.19,2.7-8.1,15.23c0,0,.16,1.59-1.9,1.9s-6-7.29-6-9.51,4.78-9.42,7-9.26S379.47,80.18,379.47,80.18Z"/><path class="cls-9" d="M368.1,81.56s-2.18-1.39-3.17-6.16-.4-14.31,5.56-16.1,27.22-4,34,1.59-.8,17.49-6.76,20.27S371.09,84.34,368.1,81.56Z"/><path class="cls-25" d="M370.13,75.1s-1.54-1-2.24-4.35-.28-10.11,3.93-11.37,19.22-2.81,24,1.12-.56,12.35-4.78,14.32S372.24,77.07,370.13,75.1Z"/><path class="cls-28" d="M602.48,171.53c-6.89-19.88-24.09-36.77-33.21-44.63.46-15.57,2.09-31.22,2.09-31.22.36-6.31,2.17-40.54-13.22-61.5-11.75-16-33.25-29-62.32-31.61C493,2.31,456.64-4.17,425.39,24c-4.73,1.14-8.91,2.52-12.34,3.46-14.3,3.92-19,7.72-16.42,12.45a3.59,3.59,0,0,0,2.65,1.77,11.76,11.76,0,0,0,5.12,1.45c5.31.4,5,2,2.27,8.42l1-1.26c-7.53,18.54-9.35,39.27-14,54.9-.63,2.16-1.3,4.28-2,6.39-3.74,3.46-16.62,14.79-26,15.64,0,0,5.37-9.41-.68-18.16,0,0,1.52-9.07-6.22-12.94a14,14,0,0,0-2.42-.91c4.18-9.19-7.85-20.33-14.73-18.26-7.23,2.19-3.7,9.92-2.18,12.28s1.66,8,1.68,8.52a24.58,24.58,0,0,0-8.58,8.46c-6.22,10.25-3.66,27.84.51,39,4.56,12.21,28.36,29.25,47.92,5.86l-.31,3.22a77.5,77.5,0,0,0,2.66,27s5.4,16.26,15.8,25.51c0,0,.53.5,1.56,1.34.16.17.31.35.48.52,0,0,8.24,6.85,13.57,10.69,6.92,5,10.72,19.94,12.72,26.44,0,0,2.75,11,2.08,12.17-2.48,4.31-7.5,4.6-6.86,9.61.47,3.74,7.16,4.67,11.16,4.75s26.15,0,26.15,0,9.91-.79,7.77-12.16c-1.08-5.75-5-24.71-5-24.71s5.42.5,9.68.82c4.1.67,14.47.8,14.47.8a198.22,198.22,0,0,1,9.95,23.68c3.91,11.9,11.36,11.41,11.36,11.41s20.31.25,24.31.16,9.9-.07,10.3-3.81c.61-5.63-4.82-6.17-7.14-10.56-1.87-3.53-4.33-11.86-4.33-11.86-.26-1.36-3.92-12.54-1.69-13.1,6.4-1.6,12.19-6.66,12.19-6.66,21.3-13.93,24.35-40.24,25.39-58.66l.12-2.35c7.09,14.3,7.12,20.49,7.53,25.77.2,2.64-1.39,3.2-5,6.27s-7.72,16.17,4,23.78c10.56,6.84,20.78.07,24.08-2.63C602.25,215.08,612.72,201.11,602.48,171.53Z"/><path class="cls-29" d="M341.13,97.84s-.17-6.22-1.68-8.57S334.4,79.18,341.63,77s20.18,10.26,14,19.67S341.13,97.84,341.13,97.84Z"/><path class="cls-30" d="M602.48,171.53c-6.89-19.88-24.09-36.77-33.21-44.63.46-15.57,2.09-31.22,2.09-31.22.36-6.31,2.17-40.54-13.22-61.5-11.75-16-33.25-29-62.32-31.61-2.85-.26-39.44-6.8-70.76,21.76-23.84,21.74-24.4,57.19-31.39,80.9-.63,2.16-1.3,4.28-2,6.39-3.74,3.46-16.62,14.79-26,15.64,0,0,5.37-9.41-.68-18.16,0,0,1.52-9.07-6.22-12.94s-20-.17-26.23,10.09-3.66,27.84.51,39c4.56,12.21,28.36,29.25,47.92,5.86l-.31,3.22a77.5,77.5,0,0,0,2.66,27s5.4,16.26,15.8,25.51c0,0,.53.5,1.56,1.34.16.17.31.35.48.52,0,0,8.24,6.85,13.57,10.69,6.92,5,10.72,19.94,12.72,26.44,0,0,2.75,11,2.08,12.17-2.48,4.31-7.5,4.6-6.86,9.61.47,3.74,7.16,4.67,11.16,4.75s26.15,0,26.15,0,9.91-.79,7.77-12.16c-1.08-5.75-5-24.71-5-24.71s5.42.5,9.68.82c4.1.67,14.47.8,14.47.8a198.22,198.22,0,0,1,9.95,23.68c3.91,11.9,11.36,11.41,11.36,11.41s20.31.25,24.31.16,9.9-.07,10.3-3.81c.61-5.63-4.82-6.17-7.14-10.56-1.87-3.53-4.33-11.86-4.33-11.86-.26-1.36-3.92-12.54-1.69-13.1,6.4-1.6,12.19-6.66,12.19-6.66,21.3-13.93,24.35-40.24,25.39-58.66l.12-2.35c7.09,14.3,7.12,20.49,7.53,25.77.2,2.64-1.39,3.2-5,6.27s-7.72,16.17,4,23.78c10.56,6.84,20.78.07,24.08-2.63C602.25,215.08,612.72,201.11,602.48,171.53Z"/><g class="cls-31"><path class="cls-32" d="M354.83,154.88c-7.09-.88-21.42-15.81-24.36-22.14.22,9.17,4.9,21.44,19.86,28.14s22.23-.87,30.18-11.59C379.36,141.78,370.83,156.88,354.83,154.88Z"/><path class="cls-32" d="M596.19,183.91c-1.5-18-11.5-24.5-21-44a105,105,0,0,1-5-11.41l-1.61-1.44c.46-15.62,2.09-31.37,2.09-31.37.37-6.32,3.79-41.83-13.22-61.51C552.83,28.77,546.25,23.2,541,19c-.58,2-2.05,7.45-5.79,9-14.5,6-42.5,10.9-78,2.9s-48.5,10-54,47-9.5,58.5,71,73c87.6,15.78,25.52,103-65.41,64.48,1.84,1.43,3.71,2.87,5.32,4,6.93,5,10.73,20,12.73,26.45,0,0,2.75,11,2.08,12.16-2.48,4.31-8.5,4.6-7.87,9.61.47,3.74,7.17,4.67,11.17,4.75s27.15,0,27.15,0,10.44-.79,8.31-12.16c-1.08-5.75-4.67-24.71-4.67-24.71s4.5.5,8.77.82c4.1.68,14.47.8,14.47.8a200.09,200.09,0,0,1,9.95,23.68c3.91,11.9,11.35,11.41,11.35,11.41s20.32.25,24.32.16,10.48-.07,10.89-3.81c.61-5.63-4.84-6.17-7.17-10.56-1.86-3.52-4.33-11.86-4.33-11.86-.26-1.36-3.92-12.54-1.68-13.1,6.39-1.6,11.62-6.66,11.62-6.66,21.29-13.93,25.24-40.08,26.28-58.5,7.42,9.67,6.78,23,7.15,24.89.5,2.5-1.5,3-5.12,5.75s-7.31,14.29,2.74,22.05C593.08,223.79,597.5,199.65,596.19,183.91Z"/></g><path class="cls-19" d="M435.37,227.87a156.87,156.87,0,0,0,28.17,8.46"/><path class="cls-19" d="M508,235.79c-6,1.85-17.3,2.26-23.8,2"/><path class="cls-29" d="M365.92,109.48a10.14,10.14,0,0,0-8.75-2.91"/><path class="cls-29" d="M367.36,125.58a15,15,0,0,1-7.36,7"/><path class="cls-29" d="M573.22,207.77s.75,5,2.82,7"/><path class="cls-29" d="M574,211.45s-5.5,1.88-6.13,2.72"/><path class="cls-29" d="M568.54,169.43s-2.23-5.3-3.83-6.89"/><path class="cls-29" d="M380.22,153.21a53,53,0,0,1,3-11.35"/><path class="cls-33" d="M539.63,71.18s-.31-11.17-7.73-15.8c-8.93-5.59-21.33,1.66-38-.67S473.57,43.38,460.57,37c-10.08-4.91-19.49-7.92-35-3.44a65.33,65.33,0,0,0-5.12,7.69c-8.43,13.19-16.94,49.78-12.64,64.22s13,22.15,40,27.5c31.36,6.23,52,7.09,72.34-5.58C536.18,117.46,541.06,90.34,539.63,71.18Z"/><path class="cls-25" d="M537,71.71s-.29-10.34-7.16-14.64c-8.28-5.17-21.76,1.55-37.21-.61s-14-1.52-26.06-7.38c-9.34-4.55-14.63-14.65-29-10.5a92.56,92.56,0,0,1-13,5.45c-7.81,12.22-15.7,46.11-11.71,59.49S425,124,449.94,129c29.06,5.77,50.15,6.56,69-5.17C533.8,114.59,538.32,89.47,537,71.71Z"/><path class="cls-34" d="M443.1,109.75s11.84,8,29.13,4.28c11.22-2.4,16.54-9.36,16.71-14,.14-4-3.36-5.94-7.56-5S464,98,453.81,95.26,443.52,91.6,440,90.06c-2.14-.92-5.75-1.92-6.43,3.68C432.94,98.47,435.82,106.06,443.1,109.75Z"/><path class="cls-35" d="M472.11,114a25.44,25.44,0,0,0,12.64-6.3c-3.79-3-10.74-5.42-20.7-6-12.5-.74-23,1.69-24.86,5.53a20.26,20.26,0,0,0,3.79,2.51S454.83,117.71,472.11,114Z"/><path class="cls-36" d="M529,97.79c-.39,2.95-7.28,4.7-15.4,3.9s-14.39-3.86-14-6.81S506.91,90.17,515,91,529.41,94.83,529,97.79Z"/><path class="cls-36" d="M428.92,85.07c-.28,2.42-4.23,4-8.82,3.44s-8.1-2.92-7.82-5.34,4.23-4,8.82-3.45S429.2,82.64,428.92,85.07Z"/><path class="cls-19" d="M443.1,109.75s11.84,8,29.13,4.28c11.22-2.4,16.54-9.36,16.71-14,.14-4-3.36-5.94-7.56-5S464,98,453.81,95.26,443.52,91.6,440,90.06c-2.14-.92-5.75-1.92-6.43,3.68C432.94,98.47,435.82,106.06,443.1,109.75Z"/><path class="cls-19" d="M472.11,114a25.44,25.44,0,0,0,12.64-6.3c-3.79-3-10.74-5.42-20.7-6-12.5-.74-23,1.69-24.86,5.53a20.26,20.26,0,0,0,3.79,2.51S454.83,117.71,472.11,114Z"/><path class="cls-19" d="M516.71,72.12a18.81,18.81,0,1,1-14.94-22A18.8,18.8,0,0,1,516.71,72.12Z"/><path class="cls-1" d="M516.18,73.54a11.84,11.84,0,1,1-9.4-13.86A11.84,11.84,0,0,1,516.18,73.54Z"/><path class="cls-30" d="M407.25,51.49c2.69-6.4,2.46-7.92-2.85-8.32-7.15-.55-8-5-8-5s22.89-6.95,25.73-6.95"/><path class="cls-12" d="M455.44,64.21a17.51,17.51,0,1,1-13.91-20.49A17.51,17.51,0,0,1,455.44,64.21Z"/><path class="cls-1" d="M454.94,63.2a11,11,0,1,1-8.75-12.9A11,11,0,0,1,454.94,63.2Z"/><path class="cls-5" d="M496.05,121.18a5.84,5.84,0,1,1-5.83-5.84A5.83,5.83,0,0,1,496.05,121.18Z"/><path class="cls-19" d="M497.05,119.68s29.67-4.67,39-15"/><path class="cls-26" d="M110.44,162.71s3.25-11,21.42-16.23,39.58-9.08,49.31-3.24,20.11,3.89,40.88-.65,39.58-9.73,39.58-9.73-53.93,19-64.24,20.76c-21,3.65-32.83-9.54-51.84-6C122.51,152,110.44,162.71,110.44,162.71Z"/><path class="cls-25" d="M516,146a18.8,18.8,0,0,0-6.63,37h0A18.8,18.8,0,0,0,516,146Zm-.56,3.12-.68-.12a15.63,15.63,0,0,1,12.79,13.79,13,13,0,0,1-5.94.69c-1.16-.21-1.74-1.31-2.48-2.2a11,11,0,0,0-6.68-3.91h0a10.93,10.93,0,0,0-7.61,1.36c-1,.57-1.93,1.41-3.1,1.2a6.44,6.44,0,0,1-3.75-2.43C501,151.38,508.46,147.84,515.48,149.1ZM496.66,162c6.29-.34,6.56,3.09,6.56,3.09s.2,4.52-5.65,5.15A14.73,14.73,0,0,1,496.66,162Zm12.64,17.74a15.57,15.57,0,0,1-9.42-5.6c.21-.34.88-2.77,3.24-3.54,2.71-.87,3.4.42,6.83,1s4.52-.35,6.75,1.41a9.29,9.29,0,0,1,2.75,4.9A13.8,13.8,0,0,1,509.3,179.69Zm14.3-4.84c-6.54-3.16-4.39-6.95-4.39-6.95s2.32-3,8.11-.46A14.73,14.73,0,0,1,523.6,174.85Z"/><path class="cls-37" d="M491,2.08c-18.5,1.75-35.82,21.37-37.58,26.44,10-.24,19,4.24,28,8.71C495.49,17.5,512.32,11.15,526,9.82,515.14,4.28,502.68,2.08,491,2.08Z"/><path class="cls-25" d="M493,2.26c-13.75.67-29.52,13.85-33.95,22.4l-2.88-1c1.95-6.22,17.79-21,29.52-22C485.65,1.66,489.09,1.78,493,2.26Z"/><path class="cls-25" d="M524.83,9.4c-15.4-.3-32.49,6.17-43.53,27.21l2.7,2c11.16-21,29.25-27.55,46.09-27C530.09,11.52,525.4,9.53,524.83,9.4Z"/><path class="cls-29" d="M531.9,55.38c-8.93-5.59-21.33,1.66-38-.67S473.57,43.38,460.57,37s-26.52-9.54-50.85,2.46c0,0-10.66,5-13.09.45-2.56-4.73,2.12-8.53,16.42-12.45,11.14-3.06,30.13-10.66,50.52-.12C486,38.94,490.9,46.38,504.24,45"/><g class="cls-38"><path class="cls-37" d="M449.66,23.47s-5,1.58-4.35,8.2l26.31,13.82s.29-6.71,6.65-8S458.24,21.78,449.66,23.47Z"/><path class="cls-25" d="M480.72,36.47a3.69,3.69,0,0,0-.77-1.73,21.19,21.19,0,0,1-2.41.67l1.29.78c-4.08-.26-7.7,5.13-8,8l-25.6-12.52a7.39,7.39,0,0,1,1.35-5.75,6.38,6.38,0,0,1,4.53-2.57,8.74,8.74,0,0,1,.08-1.14c-1,.1-4.92-.4-7,2.13a8.9,8.9,0,0,0-1.4,8.34l.89,1,27.36,13.1,1.87.9.62-1.78c0-.22,2-7.43,7.72-7.58C485.69,38.18,480.79,37.43,480.72,36.47Z"/></g></g></g></g></svg>