<svg xmlns="http://www.w3.org/2000/svg" viewBox="0 0 254.27 295.41"><defs><style>.cls-1{isolation:isolate;}.cls-2,.cls-4,.cls-5{fill:#fed500;}.cls-11,.cls-13,.cls-17,.cls-2,.cls-5{stroke:#050000;}.cls-11,.cls-13,.cls-14,.cls-15,.cls-16,.cls-17,.cls-2,.cls-5{stroke-linecap:round;stroke-linejoin:round;}.cls-17,.cls-2{stroke-width:3.5px;}.cls-3{fill:#dcdddd;}.cls-10,.cls-3,.cls-7,.cls-8{mix-blend-mode:multiply;}.cls-11,.cls-13,.cls-14,.cls-15,.cls-16,.cls-5{stroke-width:1.2px;}.cls-16,.cls-6{fill:#fff;}.cls-7,.cls-9{fill:#ffd900;}.cls-10{fill:#f8b500;}.cls-11,.cls-12{fill:#e4e4e4;}.cls-13,.cls-14{fill:none;}.cls-14{stroke:#231815;}.cls-15{fill:#231815;}.cls-15,.cls-16{stroke:#241c1d;}.cls-17{fill:#c81f19;}.cls-18{fill:#d0121b;}.cls-19{fill:#ea5504;}</style></defs><title>sedan자산 1</title><g class="cls-1"><g id="레이어_2" data-name="레이어 2"><g id="Layer_1" data-name="Layer 1"><path class="cls-2" d="M229.13,75.67c-8.74-5.1-13.53.73-13.53.73-1.24-5.16-11.09-7.39-21.8,2.75-14.42,13.66-22.07,36.38-24.55,44.87C164.34,104,157,82,137.82,67.44c-27.27-20.79-66-12.67-68.64-12C43.33,60.62,28.57,69.85,13.84,88.73c-16,20.51-11.76,47.56-11.08,53.85,0,0,.76,9.49,2.23,20.3,0,0,.73,8.43.6,20.68-.36,3.29-2.52,15.34-2.52,15.34-1.5,11.28-1.59,32.52,14.59,41.81,8.91,10.35,22,18.53,38,22.78.05,1.87,0,4-.06,6.51-.19,8.24,1.28,14.1,10.07,18.13s25.21,3.85,29.6,3.12,7-2.57,7-7.15-3.3-6.41-4-9.15a5.74,5.74,0,0,1,0-1.48c6.08,5.64,17.09,11.62,30.71,12.85,21.69,2,23.28-18.54,23.28-25.93,0-1.33.06-2.52.16-3.57,21.28-11.12,29.13-34.09,29.13-34.09,5.14-13.65,2.72-31,2.72-31s-2.36-14.7-4.52-22.72c6.3-23.26,18.06-49.75,38.53-60.78C238.9,97.13,237.62,80.64,229.13,75.67Z"/><path class="cls-3" d="M30.72,289.75c0,3.13,30,5.66,67,5.66s67-2.53,67-5.66-30-5.67-67-5.67S30.72,286.62,30.72,289.75Z"/><path class="cls-4" d="M168.34,127.37s7.47-31.18,25.46-48.22c10.71-10.14,20.56-7.91,21.8-2.75,0,0,4.79-5.83,13.53-.73,8.49,5,9.77,21.46-10.86,32.58-21.48,11.58-33.37,40.17-39.42,64.19"/><path class="cls-5" d="M208.17,76.2s12.27,11.74,14.23,18.5"/><path class="cls-5" d="M216,75.54s.53,3.73-2.14,6"/><path class="cls-5" d="M72.61,269.28l.22.08c14.12,3.32,22.74,3.26,22.74,3.26"/><path class="cls-4" d="M178.85,166.08c2.33,6.5,5.41,25.67,5.41,25.67s2.42,17.33-2.72,31c0,0-7.85,23-29.13,34.09-.1,1.05-.16,2.24-.16,3.57,0,7.39-1.59,27.89-23.28,25.93-13.62-1.23-24.63-7.21-30.71-12.85a5.74,5.74,0,0,0,0,1.48c.73,2.74,4,4.57,4,9.15s-2.56,6.41-7,7.15-20.81.91-29.6-3.12S55.44,278.24,55.63,270c0-2.5.11-4.64.06-6.51-33-8.74-53.33-34-51-60.74A256.78,256.78,0,0,0,5,162.88c-1.47-10.81-2.23-20.3-2.23-20.3-.68-6.29-4.92-33.34,11.08-53.85C28.57,69.85,43.33,60.62,69.18,55.46c2.68-.69,41.37-8.81,68.64,12,25.65,19.56,30.19,52.31,36,76.07"/><path class="cls-6" d="M142.08,190.48c1.79,10.22,11.18,17,21,15.17h0c9.8-1.84,16.31-11.62,14.52-21.84s-11.18-17-21-15.17S140.3,180.26,142.08,190.48Zm31.85-10.37a6.1,6.1,0,0,1-3.6,2.44c-1.12.21-2-.63-3-1.2A10.19,10.19,0,0,0,160,180h0a10.47,10.47,0,0,0-6.39,3.92c-.71.89-1.26,2-2.38,2.2a12.17,12.17,0,0,1-5.7-.68,15.36,15.36,0,0,1,12.24-13.81l-.65.12A15.65,15.65,0,0,1,173.93,180.11Zm.47,12.71c-5.61-.62-5.43-5.14-5.43-5.14s.25-3.43,6.29-3.09A15.24,15.24,0,0,1,174.4,192.82Zm-21,7.73a9.47,9.47,0,0,1,2.63-4.91c2.14-1.76,3.19-.79,6.48-1.41s3.95-1.9,6.55-1c2.27.75,2.91,3.18,3.12,3.53a14.78,14.78,0,0,1-9,5.6A12.82,12.82,0,0,1,153.42,200.55Zm-7.58-10.44c5.55-2.51,7.79.45,7.79.45s2.07,3.79-4.21,6.95A15,15,0,0,1,145.84,190.11Z"/><path class="cls-7" d="M229.13,75.67a16.88,16.88,0,0,0-3.45-1.54A13.5,13.5,0,0,1,227,87.41c-4.42,10.76-46,25.72-45.18,74.48,6.68-21.32,18-43.72,36.44-53.64C238.9,97.13,237.62,80.64,229.13,75.67Z"/><g class="cls-8"><path class="cls-9" d="M164.68,123.41S156,66.08,116.35,60.75s-51.67,6.33-60.67,6c-5.42-.2-5-3.78-3.88-6.6C36,65.8,24.91,74.54,13.84,88.73c-16,20.51-11.76,47.56-11.08,53.85,0,0,.76,9.49,2.23,20.3a256.78,256.78,0,0,1-.31,39.87c-2.32,26.74,18,52,51,60.74.05,1.87,0,4-.06,6.51-.19,8.24,1.28,14.1,10.07,18.13s25.21,3.85,29.6,3.12,6.83-2.49,7-6.83c-1.3,1.52-4.07,3.46-9.49,2.66-8.5-1.25-20.75-3-21.75-19s9.75-39.25,20.25-35S99.14,258,98.89,270c0,1.58-.8,2.94-.63,4.12,6.33,5.17,18.29,11.12,30.71,12.24,9.78.88,15.46-2.8,18.76-7.78-3.14.85-5.72,0-10-4.13-8-7.66,23.33-18,10.67-17s-61.34-17-55.67-49.33,44.33-33.33,61.67-46.33S164.68,123.41,164.68,123.41Z"/></g><path class="cls-10" d="M61.9,57.16a96.92,96.92,0,0,1,29.08-4c3.77,1.52,9.71,6.66,13.85,12.11-9.09-.55-19.42.11-28,3.31a1.46,1.46,0,0,0-.35-.78C71.27,61.81,66.18,58.4,61.9,57.16Z"/><path class="cls-6" d="M92,53.33c2,.07,2.42,0,3.45.14,3.29,1.11,9.31,6.45,12.36,11.92.42.74-2.77.39-3.14,0s-7-9.62-13.74-12C91.14,53.38,91.72,53.32,92,53.33Z"/><path class="cls-6" d="M62.69,56.91c3.85,1.39,8.67,4.53,13.84,10.49a1.53,1.53,0,0,1-1,2.53,1.57,1.57,0,0,1-1.37-.52C68,62.73,61.42,59.21,57.26,58.34,57.72,58.18,61,57.24,62.69,56.91Z"/><path class="cls-11" d="M90.75,62.5s33.4-5.22,51.55,17.88c9.54,12.15,22.5,37.54,19.95,57.61-1.87,14.8-7.4,22.31-33.16,30.3-29.95,9.28-56.35,13.47-77.48,3-22-10.87-26.68-48.16-21.83-64.39S45.52,68.05,90.75,62.5Z"/><path class="cls-6" d="M92.67,65.64s30.83-4.82,47.58,16.51c8.81,11.21,21.21,32.62,18.86,51.14-1.73,13.66-8.38,20.94-32.17,28.31-27.64,8.56-52,12.44-71.52,2.8-20.3-10-25.08-41.5-20.6-56.48S50.92,70.76,92.67,65.64Z"/><path class="cls-12" d="M42.88,144.71c.53,2.93,7.51,4.33,15.58,3.13s14.17-4.57,13.63-7.51-7.51-4.33-15.58-3.12S42.34,141.77,42.88,144.71Z"/><path class="cls-12" d="M142.22,127c.4,2.41,4.42,3.75,9,3s7.94-3.32,7.54-5.73-4.42-3.75-9-3S141.82,124.59,142.22,127Z"/><path class="cls-13" d="M85.45,138.51s9.41,4.53,25.06.38c14.59-3.88,16.65-7.65,16.65-7.65"/><path class="cls-14" d="M51.71,119.41A18.81,18.81,0,1,0,65,96.34,18.82,18.82,0,0,0,51.71,119.41Z"/><path class="cls-15" d="M52.35,120.79a11.84,11.84,0,1,0,8.34-14.52A11.83,11.83,0,0,0,52.35,120.79Z"/><path class="cls-16" d="M112.22,106.93a17.51,17.51,0,1,0,12.33-21.48A17.51,17.51,0,0,0,112.22,106.93Z"/><path class="cls-15" d="M112.64,105.89a11,11,0,1,0,7.76-13.52A11,11,0,0,0,112.64,105.89Z"/><path class="cls-4" d="M27.92,207.14c1.77,3.43,6.18,8.32,9.09,1.27,6.16-14.9,12-22.93,12-22.93,2.38-2-4-10.62,3.11-13.92,4.49-2.07,6.6,5.86,6.6,5.86s5.31-9.34,10.26-6.78,1.46,11.54,1.46,11.54,6.84,5,5.37,22.4-20.41,46.33-49.41,39.5c-24.88-5.86-25-32.17-23.28-45.18,0,0,2.39-13.3,2.56-15.78"/><g class="cls-8"><path class="cls-9" d="M70.57,182.41s3.52-7.41-.21-10.49c-.18,4.74.57,7.41-5,10.9-3.62,2.25-13.63,48-32.85,29.52a11.17,11.17,0,0,1-4-4.67L5.6,183.1C5.34,185.56,3,199.71,3,199.71c-1.73,13-.94,39.39,24,45.11,28.18,6.48,47.38-22.71,49.22-39.16C78.14,188.3,70.57,182.41,70.57,182.41Z"/></g><path class="cls-5" d="M58.64,177.5s-2.83,4.28-2.91,4.62"/><path class="cls-13" d="M169,120.77a114.61,114.61,0,0,1,2.5,17.13"/><path class="cls-13" d="M178.89,163.08a59.64,59.64,0,0,0,1.87,7.38"/><path class="cls-13" d="M27.92,207.14c1.77,3.43,6.18,8.32,9.09,1.27,6.16-14.9,12-22.93,12-22.93,2.38-2-4-10.62,3.11-13.92,4.49-2.07,6.6,5.86,6.6,5.86s5.31-9.34,10.26-6.78,1.46,11.54,1.46,11.54,6.84,5,5.37,22.4-20,46-49.91,39.92c0,0-6-1.34-8.59-3.42"/><path class="cls-13" d="M99.57,267.8c9.84-.14,19.42-1.24,28.11-4"/><path class="cls-13" d="M146.26,260a52.91,52.91,0,0,0,7.32-3.08"/><path class="cls-13" d="M55.14,263.83c-.1-4.33-.74-7.15-3.18-9.33"/><path class="cls-13" d="M67,227.32s9.62-10.19,24.82-1.09c14.11,8.43,7.39,38.74,6.47,46.89a2.45,2.45,0,0,0,.86,2.29"/><path class="cls-17" d="M251.39,24.4c2.73-8.26.57-17.24-7.24-21.06a16.09,16.09,0,0,0-21.34,7.28,16.07,16.07,0,0,0-22.3-3.28c-7,5.17-8,14.74-3.3,22,0,0,2.24,4.27,11.2,12.83a155.14,155.14,0,0,0,14.44,12.49S246.65,38.76,251.39,24.4Z"/><path class="cls-18" d="M251.39,24.4c2.73-8.26.57-17.24-7.24-21.06a16.09,16.09,0,0,0-21.34,7.28,16.07,16.07,0,0,0-22.3-3.28c-7,5.17-8,14.74-3.3,22,0,0,2.24,4.27,11.2,12.83a155.14,155.14,0,0,0,14.44,12.49S246.65,38.76,251.39,24.4Z"/><path class="cls-19" d="M223.83,47.45c7.42-1.65,17.85-17.33,20.39-23.41,2.6-6.25.44-13.42-5.64-16.38s-13.22.8-16.19,6.88c-4-5.44-14-7.64-19.47-3.62s-6.27,11.47-2.57,17.14C204,33.57,216.22,47.17,223.83,47.45Z"/><path class="cls-6" d="M205.67,16c-1.15,2.34-3.58,3.48-5.43,2.57S197.81,15,199,12.68s3.58-3.48,5.43-2.57S206.82,13.65,205.67,16Z"/><path class="cls-6" d="M203.1,22.89A2.06,2.06,0,1,1,200.86,21,2.06,2.06,0,0,1,203.1,22.89Z"/></g></g></g></svg>