<svg xmlns="http://www.w3.org/2000/svg" xmlns:xlink="http://www.w3.org/1999/xlink" viewBox="0 0 287.59 272.64"><defs><style>.cls-1,.cls-10{fill:none;}.cls-2{isolation:isolate;}.cls-3{fill:#dcdddd;}.cls-19,.cls-4{fill:#231815;}.cls-10,.cls-11,.cls-14,.cls-19,.cls-20,.cls-4,.cls-6,.cls-8{stroke:#231815;stroke-linecap:round;stroke-linejoin:round;}.cls-4{stroke-width:3.5px;}.cls-5{fill:#0064b2;}.cls-6{fill:#0086c9;}.cls-10,.cls-11,.cls-14,.cls-19,.cls-20,.cls-6,.cls-8{stroke-width:1.2px;}.cls-7{fill:#0075be;}.cls-8{fill:#cdcece;}.cls-11,.cls-9{fill:#fed500;}.cls-12,.cls-21{mix-blend-mode:multiply;}.cls-13{fill:#ffd900;}.cls-14,.cls-18{fill:#e6e6e6;}.cls-15,.cls-20{fill:#fff;}.cls-16{fill:#ce6700;}.cls-17{fill:#fbc93e;}.cls-21{fill:#f8b500;}.cls-22{clip-path:url(#clip-path);}</style><clipPath id="clip-path"><path class="cls-1" d="M163,39.11c-3.16,1.58-6.16-.25-11.58-3.7-1.06-.67-2.4-1.45-3.61-2.22A138.32,138.32,0,0,0,132.1,24.4a47.63,47.63,0,0,0-16.72-4.71c-8.74-.82-13.89,3-19.3,4.29C85.53,26.39,82,29,83.73,32.54c1.63,3.37,9.54.08,9.54.08a28,28,0,0,1,18.89-4.75c1,.09,2,.25,3,.42a50.57,50.57,0,0,1,15.24,5.55c4.77,2.72,8.07,4.13,9.63,5.37,1.37,1.09,2.67,2,3.52,2.63,9.81,7.37,31.87,1.8,38.21,6.15,0,0,1.67-3.66-.42-5.93S172.55,34.31,163,39.11Z"/></clipPath></defs><title>sedan자산 1</title><g class="cls-2"><g id="레이어_2" data-name="레이어 2"><g id="Layer_1" data-name="Layer 1"><path class="cls-3" d="M220.51,267c0,3.13-30,5.67-67,5.67s-67-2.54-67-5.67,30-5.66,67-5.66S220.51,263.85,220.51,267Z"/><path class="cls-4" d="M285.54,227.71a1.79,1.79,0,0,0,.25-1.42c-.05-3.21-.87-11.37-7.7-14.2v0a7.5,7.5,0,0,0-4.13-.9,17.88,17.88,0,0,0-1.94-4c3.69-7,6.33-19,1-37.71-6.68-23.43-28-43.49-33.55-48.35.46-15.62,1.09-31.37,1.09-31.37.36-6.32,2.4-33.66-14.61-53.34C210.29,18.28,192.09,6.87,166,3c-2.67-.55-34.17-7.35-68.42,17.41-5.77,1.22-10.82,2.92-14.84,4-14.31,3.93-19,7.72-16.43,12.46A3.63,3.63,0,0,0,69,38.67a11.68,11.68,0,0,0,5.11,1.44c5.12.39,5,1.93,2.54,7.78l-.16.39c0,.09-.07.17-.1.26v0c-6.7,17-8.17,36-12.52,50.78-.69,2.35-1.42,4.67-2.17,7a134.45,134.45,0,0,0-27.23,22.89,21.28,21.28,0,0,0,4.8-9.14c5.68.06,10-10.81,5.09-15.47-4.69-4.5-8.35-1.87-9-1.34A11.24,11.24,0,0,0,26.79,99a13.17,13.17,0,0,1,2.51.3V92.11a12.95,12.95,0,0,0,1.83-22.88s-2.44-1.51-2.51,1.07v6.35c0,2.34-2.05,2.65-4.37,2.68s-4.36-.34-4.36-2.68V70.3c-.08-2.58-2.52-1.07-2.52-1.07a13,13,0,0,0,2.07,23v8.22C11.18,104,7.88,112.71,7.88,112.71s-18,36.71,7.63,51.25c14.27,8.09,27.44-4.74,35.35-15.58a77.5,77.5,0,0,0,2.66,27s5.4,16.26,15.8,25.51c0,0,.53.5,1.56,1.34.17.17.31.35.48.52,0,0,8.24,6.85,13.57,10.69,6.92,5,10.72,19.94,12.72,26.44,0,0,2.75,11,2.08,12.17-2.48,4.31-8.5,4.6-7.86,9.61.47,3.74,7.16,4.67,11.16,4.75s27.15,0,27.15,0,9.91-.79,7.77-12.16c-1.07-5.75-5-24.71-5-24.71s5.42.5,9.68.82c4.1.68,14.47.8,14.47.8A198.22,198.22,0,0,1,167,254.87c3.91,11.9,11.36,11.41,11.36,11.41s20.31.25,24.31.16,9.9-.07,10.3-3.81c.62-5.63-4.82-6.17-7.14-10.56-1.87-3.53-4.33-11.86-4.33-11.86-.26-1.36-3.92-12.54-1.69-13.1,6.4-1.6,12.19-6.66,12.19-6.66,21.3-13.93,24.35-40.24,25.39-58.66,7.42,9.67,7.68,23.19,8,25,.5,2.5-1.5,3-5.13,5.75-2.77,2.1-5.67,9.67-2,16.58a24.28,24.28,0,0,0-2.51,7.6l-14,2.1a1,1,0,0,0-.35.17c-2.79,1.1-3,5.39-3,6.28h-.12v18.76c0,3.55.59,4,.59,4l11.82,8.43a6.48,6.48,0,0,0,5.47.88l46.62-8.69s2.37,0,2.37-3.11c0-1.92.65-17.85.65-17.85ZM26.42,99l-.93,0Z"/><path class="cls-5" d="M218.32,225.31v18.76c0,3.55.59,4,.59,4l11.82,8.43a6.48,6.48,0,0,0,5.47.88l46.62-8.69s2.37,0,2.37-3.11c0-1.92.65-17.85.65-17.85Z"/><line class="cls-6" x1="233.24" y1="257.52" x2="233.24" y2="238.46"/><path class="cls-5" d="M285.79,226.29c-.05-3.21-.87-11.37-7.7-14.2v0c-2.39-1.4-5.07-.84-7.25-.61l-49,7.36c-1.48.3-3.86,6.47-2.76,7.78l11.82,8.42a6.46,6.46,0,0,0,5.46.89l47.46-7.59C285,228.13,286,228.1,285.79,226.29Z"/><path class="cls-7" d="M277.85,220.46c0-2.25-2.7-5.25-7.48-7.23v0c-1.67-1-3.55-.6-5.07-.43L231,218c-1,.2-1.65,2.37-.88,3.29l8.28,5.9a4.5,4.5,0,0,0,3.83.62l34.28-5.88C277.27,221.75,278,221.73,277.85,220.46Z"/><path class="cls-6" d="M232.64,235.8s.77-12.87-7.8-16.42c-7.31-3-7.15,6.1-7.15,6.1"/><path class="cls-8" d="M251.8,199c18.19-1.22,22,10.68,22.75,14.36.44,2.21-.75,3.63-3,4.08s-4.61-.27-5-2.48c-.79-3.94-3.9-8.5-14.19-7.81"/><path class="cls-9" d="M273,169.46c-6.68-23.43-28-43.49-33.55-48.35.46-15.62,1.09-31.37,1.09-31.37.36-6.32,2.4-33.66-14.61-53.34C210.29,18.28,192.09,6.87,166,3c-2.7-.56-35-7.55-69.76,18.38-25.86,19.28-25.4,54.18-32.39,77.9-.69,2.35-1.42,4.67-2.17,7a134.45,134.45,0,0,0-27.23,22.89,21.28,21.28,0,0,0,4.8-9.14c5.68.06,10-10.81,5.09-15.47-4.69-4.5-8.35-1.87-9-1.34a11.53,11.53,0,0,0-10.51-4.11c-12.25,1.12-17,13.62-17,13.62s-18,36.71,7.63,51.25c14.27,8.09,27.44-4.74,35.35-15.58a77.5,77.5,0,0,0,2.66,27s5.4,16.26,15.8,25.51c0,0,.53.5,1.56,1.34.17.17.31.35.48.52,0,0,8.24,6.85,13.57,10.69,6.92,5,10.72,19.94,12.72,26.44,0,0,2.75,11,2.08,12.17-2.48,4.31-8.5,4.6-7.86,9.61.47,3.74,7.16,4.67,11.16,4.75s27.15,0,27.15,0,9.91-.79,7.77-12.16c-1.07-5.75-5-24.71-5-24.71s5.42.5,9.68.82c4.1.68,14.47.8,14.47.8A198.22,198.22,0,0,1,167,254.87c3.91,11.9,11.36,11.41,11.36,11.41s20.31.25,24.31.16,9.9-.07,10.3-3.81c.62-5.63-4.82-6.17-7.14-10.56-1.87-3.53-4.33-11.86-4.33-11.86-.26-1.36-3.92-12.54-1.69-13.1,6.4-1.6,12.19-6.66,12.19-6.66,21.3-13.93,24.35-40.24,25.39-58.66,7.42,9.67,7.68,23.19,8,25,.5,2.5-1.5,3-5.13,5.75s-7.5,14.88,3.5,22.63,19.05,1.6,22.36-.82C270.48,211.26,281.28,198.4,273,169.46Z"/><path class="cls-10" d="M106.66,221.82a156.87,156.87,0,0,0,28.17,8.46"/><path class="cls-10" d="M179.31,229.74c-6,1.85-17.3,2.26-23.8,2"/><path class="cls-11" d="M237.85,163.64a63.83,63.83,0,0,0-5.14-7.3"/><path class="cls-11" d="M50.09,150.79s1.39-9.89,3.86-15.18"/><path class="cls-10" d="M11.63,130.42A12.83,12.83,0,0,0,22,135c6.83-.2,12.47-5.82,12.47-5.82a22,22,0,0,0,5-7.49"/><g class="cls-12"><path class="cls-13" d="M20.51,158c-7.09-.89-15.31-12.07-18.25-18.41C2.48,148.72,5.74,158.13,16,164c14,8,27-4.31,34.94-15C49.8,141.42,36.51,160,20.51,158Z"/><path class="cls-13" d="M267.51,178c-1.5-18-11.5-24.5-21-44a102.43,102.43,0,0,1-4.94-11.41L240,121.11c.46-15.62,1.09-31.37,1.09-31.37.36-6.32,2.4-33.66-14.61-53.34A110.33,110.33,0,0,0,211.6,22c-.58,2-2.34,3.9-6.09,5.45-14.5,6-41.5,5.5-77-2.5S80,35,74.51,72s-9.5,58.5,71,73c87.61,15.78,25.53,103-65.4,64.48,1.83,1.43,3.71,2.87,5.32,4,6.92,5,10.72,19.94,12.72,26.44,0,0,2.75,11,2.08,12.17-2.48,4.31-8.5,4.6-7.86,9.61.47,3.74,7.16,4.67,11.16,4.75s27.15,0,27.15,0,9.91-.79,7.77-12.16c-1.07-5.75-5-24.71-5-24.71s5.42.5,9.68.82c4.1.68,14.47.8,14.47.8a198.22,198.22,0,0,1,9.95,23.68c3.91,11.9,11.36,11.41,11.36,11.41s20.31.25,24.31.16,9.9-.07,10.3-3.81c.62-5.63-4.82-6.17-7.14-10.56-1.87-3.53-4.33-11.86-4.33-11.86-.26-1.36-3.92-12.54-1.69-13.1,6.4-1.6,12.19-6.66,12.19-6.66,21.3-13.93,24.41-39.32,25.45-57.74,7.42,9.67,7.13,22.15,7.5,24,.5,2.5-1.75,3.75-5.37,6.5s-7.25,13.75,3.47,21.43C264.4,217.84,268.83,193.7,267.51,178Z"/></g><path class="cls-14" d="M209.33,68.12S209,57,201.6,52.32c-8.94-5.59-21.34,1.67-38-.67S143.26,40.32,130.26,34c-10.08-4.91-19.48-7.92-35-3.44a64.59,64.59,0,0,0-5.11,7.69C81.73,51.43,73.22,88,77.51,102.46s13,22.14,40,27.5c31.37,6.23,52,7.08,72.34-5.59C205.87,114.41,210.75,87.28,209.33,68.12Z"/><path class="cls-15" d="M206.32,69.1s-.29-10.35-7.16-14.64c-8.28-5.18-21.77,1.54-37.2-.62s-14-1.51-26.07-7.38c-9.34-4.55-14.64-14.65-29-10.5a92.56,92.56,0,0,1-13,5.45c-7.81,12.22-15.7,46.12-11.71,59.5s12.06,20.51,37.05,25.47c29.05,5.78,50.15,6.57,69-5.17C203.12,112,207.64,86.85,206.32,69.1Z"/><path class="cls-16" d="M112.8,106.7s11.84,8,29.12,4.27c11.22-2.39,16.55-9.35,16.71-14,.14-4-3.36-5.94-7.55-4.94s-17.4,2.93-27.58.2-10.29-3.66-13.85-5.2c-2.14-.92-5.74-1.92-6.43,3.67C102.64,95.41,105.52,103,112.8,106.7Z"/><path class="cls-17" d="M141.8,111a25.53,25.53,0,0,0,12.64-6.3c-3.79-3-10.73-5.43-20.7-6-12.5-.74-23,1.68-24.86,5.53a20.51,20.51,0,0,0,3.8,2.51S124.52,114.65,141.8,111Z"/><path class="cls-18" d="M198.72,94.73c-.39,3-7.29,4.71-15.41,3.91s-14.38-3.86-14-6.82,7.29-4.7,15.4-3.9S199.11,91.77,198.72,94.73Z"/><path class="cls-18" d="M98.61,82c-.27,2.43-4.22,4-8.82,3.45S81.7,82.54,82,80.11s4.23-4,8.83-3.44S98.89,79.59,98.61,82Z"/><path class="cls-10" d="M112.8,106.7s11.84,8,29.12,4.27c11.22-2.39,16.55-9.35,16.71-14,.14-4-3.36-5.94-7.55-4.94s-17.4,2.93-27.58.2-10.29-3.66-13.85-5.2c-2.14-.92-5.74-1.92-6.43,3.67C102.64,95.41,105.52,103,112.8,106.7Z"/><path class="cls-10" d="M141.8,111a25.53,25.53,0,0,0,12.64-6.3c-3.79-3-10.73-5.43-20.7-6-12.5-.74-23,1.68-24.86,5.53a20.51,20.51,0,0,0,3.8,2.51S124.52,114.65,141.8,111Z"/><path class="cls-10" d="M186.4,69.07a18.81,18.81,0,1,1-14.93-22A18.8,18.8,0,0,1,186.4,69.07Z"/><path class="cls-19" d="M185.87,70.49a11.84,11.84,0,1,1-9.4-13.86A11.84,11.84,0,0,1,185.87,70.49Z"/><path class="cls-9" d="M77,47.25c2.26-6.27,2.42-6.74-2.89-7.14-7.14-.54-8-5-8-5s22.89-7,25.73-7"/><path class="cls-20" d="M125.13,61.16a17.51,17.51,0,1,1-13.91-20.5A17.5,17.5,0,0,1,125.13,61.16Z"/><path class="cls-19" d="M124.63,60.15a11,11,0,1,1-8.75-12.9A11,11,0,0,1,124.63,60.15Z"/><path class="cls-18" d="M29.3,98.59V92.11a12.95,12.95,0,0,0,1.83-22.88s-2.44-1.51-2.51,1.07v6.35c0,2.34-2.05,2.65-4.37,2.68s-4.36-.34-4.36-2.68V70.3c-.08-2.58-2.52-1.07-2.52-1.07a13,13,0,0,0,2.07,23v7.57a18,18,0,0,1,5.63-1.45A13.44,13.44,0,0,1,29.3,98.59Z"/><path class="cls-14" d="M19.44,134.77v3a13,13,0,0,0-2.07,23s2.44,1.51,2.52-1.07V153.3c0-2.34,2.05-2.65,4.36-2.68s4.37.34,4.37,2.68v6.35c.07,2.58,2.51,1.07,2.51,1.07a12.95,12.95,0,0,0-1.83-22.88V133a16.65,16.65,0,0,1-7.09,2A13.63,13.63,0,0,1,19.44,134.77Z"/><path class="cls-8" d="M248.79,209.06c-4.38,3.21-4.95,9.22-5,9.55-.18,2.14-1.91,2.91-4,2.91l-.34,0c-2.25-.18-4-1.31-3.8-3.56.36-4.36,2.69-11.6,8.69-15.77a4.1,4.1,0,0,1,4.69.41C251.48,204.47,251.36,207.18,248.79,209.06Z"/><path class="cls-15" d="M185.44,143.08a18.8,18.8,0,1,0-6.63,37h0a18.8,18.8,0,0,0,6.63-37Zm-.56,3.11-.68-.12A15.63,15.63,0,0,1,197,159.86a13.12,13.12,0,0,1-5.94.7c-1.16-.21-1.74-1.32-2.48-2.2a11,11,0,0,0-6.67-3.91h0a10.94,10.94,0,0,0-7.61,1.35c-1,.58-1.93,1.41-3.09,1.2a6.39,6.39,0,0,1-3.76-2.43C170.43,148.47,177.86,144.94,184.88,146.19ZM166.06,159c6.29-.33,6.56,3.09,6.56,3.09s.2,4.53-5.65,5.15A14.81,14.81,0,0,1,166.06,159Zm12.65,17.74a15.5,15.5,0,0,1-9.42-5.59c.21-.35.87-2.78,3.24-3.54,2.7-.87,3.39.41,6.82,1s4.52-.36,6.75,1.4a9.24,9.24,0,0,1,2.75,4.91A13.83,13.83,0,0,1,178.71,176.78Zm14.3-4.84c-6.55-3.15-4.4-6.94-4.4-6.94s2.33-3,8.11-.47A14.67,14.67,0,0,1,193,171.94Z"/><path class="cls-21" d="M156.76,1.88c-15.4,1.82-31.66,18.56-33.42,23.64,10-.25,19,4.23,28,8.71,8.25-11.68,23.61-24,37.26-25.31C177.73,3.37,168.67,1,156.76,1.88Z"/><path class="cls-15" d="M157.14,1.81c-11.33,1.51-25.75,12.31-28.24,19.84l-2.76-.92c2-6.22,11.89-15.75,24-19.07C150.12,1.66,153.34,1.56,157.14,1.81Z"/><path class="cls-15" d="M187.16,8.29c-15.4-.3-30.89,12-36,25.52l2.73,1.74c5-13.28,21.24-26.31,38.38-25C192.27,10.53,187.74,8.42,187.16,8.29Z"/><path class="cls-11" d="M201.6,52.32c-8.94-5.59-21.34,1.67-38-.67C147.53,49.4,143.76,40.57,130.26,34c-13-6.34-26.51-9.55-50.85,2.45,0,0-11.38,5-13.82.52-2.56-4.73,2.69-9.07,17-13,11.14-3.05,30.28-10.18,50.67.36,22.39,11.57,27.34,19,40.67,17.67"/><path class="cls-10" d="M272.67,207.2s-11.25,18.93-28,8.31"/><path class="cls-10" d="M219.06,226.64l11.82,8.42a6.46,6.46,0,0,0,5.46.89l47.46-7.59"/><g class="cls-22"><path class="cls-21" d="M118.71,20.36s-5,1.58-4.35,8.19l26.31,13.83s.29-6.72,6.66-8S127.29,18.67,118.71,20.36Z"/><path class="cls-15" d="M149.77,33.36a3.66,3.66,0,0,0-.77-1.74,20.08,20.08,0,0,1-2.41.68l1.29.77c-4.08-.26-7.69,5.13-7.95,8l-25.6-12.52a7.39,7.39,0,0,1,1.35-5.75,6.4,6.4,0,0,1,4.52-2.57,10.54,10.54,0,0,1,.08-1.13c-1,.09-4.92-.4-7,2.12a8.93,8.93,0,0,0-1.4,8.34l.89,1,27.36,13.1,1.88.89.62-1.77c0-.23,2-7.44,7.71-7.58C154.74,35.06,149.84,34.32,149.77,33.36Z"/></g><path class="cls-10" d="M17.6,100.47a18,18,0,0,1,13.67-1.32"/></g></g></g></svg>